<?xml version="1.0" encoding="UTF-8" standalone="no"?>
<!DOCTYPE svg PUBLIC "-//W3C//DTD SVG 1.1//EN"
 "http://www.w3.org/Graphics/SVG/1.1/DTD/svg11.dtd">
<!-- Generated by graphviz version 2.47.0 (20210316.0004)
 -->
<!-- Title: dependencies Pages: 1 -->
<svg width="1999pt" height="284pt"
 viewBox="0.00 0.00 1999.00 284.00" xmlns="http://www.w3.org/2000/svg" xmlns:xlink="http://www.w3.org/1999/xlink">
<g id="graph0" class="graph" transform="scale(1 1) rotate(0) translate(4 280)">
<title>dependencies</title>
<polygon fill="white" stroke="transparent" points="-4,4 -4,-280 1995,-280 1995,4 -4,4"/>
<text text-anchor="start" x="974.51" y="-42.4" font-family="Times-12" font-weight="bold" font-size="14.00">Legend</text>
<polygon fill="#ffffb3" stroke="transparent" points="761.5,-10 761.5,-30 781.5,-30 781.5,-10 761.5,-10"/>
<text text-anchor="start" x="785.13" y="-15.4" font-family="Times-12" font-size="14.00"> &#160;Declarations</text>
<polygon fill="#8dd3c7" stroke="transparent" points="874.5,-10 874.5,-30 894.5,-30 894.5,-10 874.5,-10"/>
<text text-anchor="start" x="898.23" y="-15.4" font-family="Times-12" font-size="14.00"> &#160;Module</text>
<polygon fill="#80b1d3" stroke="transparent" points="960.5,-10 960.5,-30 980.5,-30 980.5,-10 960.5,-10"/>
<text text-anchor="start" x="984.28" y="-15.4" font-family="Times-12" font-size="14.00"> &#160;Bootstrap</text>
<polygon fill="#fdb462" stroke="transparent" points="1057.5,-10 1057.5,-30 1077.5,-30 1077.5,-10 1057.5,-10"/>
<text text-anchor="start" x="1081.17" y="-15.4" font-family="Times-12" font-size="14.00"> &#160;Providers</text>
<polygon fill="#fb8072" stroke="transparent" points="1153.5,-10 1153.5,-30 1173.5,-30 1173.5,-10 1153.5,-10"/>
<text text-anchor="start" x="1177.23" y="-15.4" font-family="Times-12" font-size="14.00"> &#160;Exports</text>
<g id="clust1" class="cluster">
<title>cluster_ShopModule</title>
<polygon fill="none" stroke="black" stroke-dasharray="1,5" points="8,-70 8,-268 1983,-268 1983,-70 8,-70"/>
</g>
<g id="clust11" class="cluster">
<title>cluster_ShopModule_exports</title>
<polygon fill="none" stroke="black" points="762,-208 762,-260 1353,-260 1353,-208 762,-208"/>
</g>
<g id="clust10" class="cluster">
<title>cluster_ShopModule_imports</title>
<polygon fill="none" stroke="black" points="1400,-78 1400,-130 1975,-130 1975,-78 1400,-78"/>
</g>
<g id="clust2" class="cluster">
<title>cluster_ShopModule_declarations</title>
<polygon fill="none" stroke="black" points="16,-78 16,-130 1392,-130 1392,-78 16,-78"/>
</g>
<!-- BookStatisticsFilterComponent -->
<g id="node1" class="node">
<title>BookStatisticsFilterComponent</title>
<polygon fill="#ffffb3" stroke="black" points="1384.05,-122 1191.95,-122 1191.95,-86 1384.05,-86 1384.05,-122"/>
<text text-anchor="middle" x="1288" y="-99.8" font-family="Times,serif" font-size="14.00">BookStatisticsFilterComponent</text>
</g>
<!-- ShopModule -->
<g id="node8" class="node">
<title>ShopModule</title>
<polygon fill="#8dd3c7" stroke="black" points="1104.33,-187 1101.33,-191 1080.33,-191 1077.33,-187 1015.67,-187 1015.67,-151 1104.33,-151 1104.33,-187"/>
<text text-anchor="middle" x="1060" y="-164.8" font-family="Times,serif" font-size="14.00">ShopModule</text>
</g>
<!-- BookStatisticsFilterComponent&#45;&gt;ShopModule -->
<g id="edge1" class="edge">
<title>BookStatisticsFilterComponent&#45;&gt;ShopModule</title>
<path fill="none" stroke="black" d="M1268.38,-122.24C1268.38,-137.57 1268.38,-157 1268.38,-157 1268.38,-157 1114.19,-157 1114.19,-157"/>
<polygon fill="black" stroke="black" points="1114.19,-153.5 1104.19,-157 1114.19,-160.5 1114.19,-153.5"/>
</g>
<!-- BookStockReplenishmentComponent -->
<g id="node2" class="node">
<title>BookStockReplenishmentComponent</title>
<polygon fill="#ffffb3" stroke="black" points="1173.54,-122 946.46,-122 946.46,-86 1173.54,-86 1173.54,-122"/>
<text text-anchor="middle" x="1060" y="-99.8" font-family="Times,serif" font-size="14.00">BookStockReplenishmentComponent</text>
</g>
<!-- BookStockReplenishmentComponent&#45;&gt;ShopModule -->
<g id="edge2" class="edge">
<title>BookStockReplenishmentComponent&#45;&gt;ShopModule</title>
<path fill="none" stroke="black" d="M1060,-122.11C1060,-122.11 1060,-140.99 1060,-140.99"/>
<polygon fill="black" stroke="black" points="1056.5,-140.99 1060,-150.99 1063.5,-140.99 1056.5,-140.99"/>
</g>
<!-- CartDialogComponent -->
<g id="node3" class="node">
<title>CartDialogComponent</title>
<polygon fill="#ffffb3" stroke="black" points="927.54,-122 784.46,-122 784.46,-86 927.54,-86 927.54,-122"/>
<text text-anchor="middle" x="856" y="-99.8" font-family="Times,serif" font-size="14.00">CartDialogComponent</text>
</g>
<!-- CartDialogComponent&#45;&gt;ShopModule -->
<g id="edge3" class="edge">
<title>CartDialogComponent&#45;&gt;ShopModule</title>
<path fill="none" stroke="black" d="M856,-122.24C856,-137.57 856,-157 856,-157 856,-157 1005.74,-157 1005.74,-157"/>
<polygon fill="black" stroke="black" points="1005.74,-160.5 1015.74,-157 1005.74,-153.5 1005.74,-160.5"/>
</g>
<!-- ClientChangeDialogComponent -->
<g id="node4" class="node">
<title>ClientChangeDialogComponent</title>
<polygon fill="#ffffb3" stroke="black" points="766.42,-122 569.58,-122 569.58,-86 766.42,-86 766.42,-122"/>
<text text-anchor="middle" x="668" y="-99.8" font-family="Times,serif" font-size="14.00">ClientChangeDialogComponent</text>
</g>
<!-- ClientChangeDialogComponent&#45;&gt;ShopModule -->
<g id="edge4" class="edge">
<title>ClientChangeDialogComponent&#45;&gt;ShopModule</title>
<path fill="none" stroke="black" d="M668,-122.03C668,-139.06 668,-162 668,-162 668,-162 1005.79,-162 1005.79,-162"/>
<polygon fill="black" stroke="black" points="1005.79,-165.5 1015.79,-162 1005.79,-158.5 1005.79,-165.5"/>
</g>
<!-- ClientInfoComponent -->
<g id="node5" class="node">
<title>ClientInfoComponent</title>
<polygon fill="#ffffb3" stroke="black" points="551.38,-122 412.62,-122 412.62,-86 551.38,-86 551.38,-122"/>
<text text-anchor="middle" x="482" y="-99.8" font-family="Times,serif" font-size="14.00">ClientInfoComponent</text>
</g>
<!-- ClientInfoComponent&#45;&gt;ShopModule -->
<g id="edge5" class="edge">
<title>ClientInfoComponent&#45;&gt;ShopModule</title>
<path fill="none" stroke="black" d="M482,-122.22C482,-140.83 482,-167 482,-167 482,-167 1005.61,-167 1005.61,-167"/>
<polygon fill="black" stroke="black" points="1005.61,-170.5 1015.61,-167 1005.61,-163.5 1005.61,-170.5"/>
</g>
<!-- InputMaxStockDirective -->
<g id="node6" class="node">
<title>InputMaxStockDirective</title>
<polygon fill="#ffffb3" stroke="black" points="394.68,-122 239.32,-122 239.32,-86 394.68,-86 394.68,-122"/>
<text text-anchor="middle" x="317" y="-99.8" font-family="Times,serif" font-size="14.00">InputMaxStockDirective</text>
</g>
<!-- InputMaxStockDirective&#45;&gt;ShopModule -->
<g id="edge6" class="edge">
<title>InputMaxStockDirective&#45;&gt;ShopModule</title>
<path fill="none" stroke="black" d="M317,-122.22C317,-142.37 317,-172 317,-172 317,-172 1005.75,-172 1005.75,-172"/>
<polygon fill="black" stroke="black" points="1005.75,-175.5 1015.75,-172 1005.75,-168.5 1005.75,-175.5"/>
</g>
<!-- ShoppingCartButtonComponent -->
<g id="node7" class="node">
<title>ShoppingCartButtonComponent</title>
<polygon fill="#ffffb3" stroke="black" points="221.73,-122 24.27,-122 24.27,-86 221.73,-86 221.73,-122"/>
<text text-anchor="middle" x="123" y="-99.8" font-family="Times,serif" font-size="14.00">ShoppingCartButtonComponent</text>
</g>
<!-- ShoppingCartButtonComponent&#45;&gt;ShopModule -->
<g id="edge7" class="edge">
<title>ShoppingCartButtonComponent&#45;&gt;ShopModule</title>
<path fill="none" stroke="black" d="M123,-122.04C123,-143.66 123,-177 123,-177 123,-177 1005.75,-177 1005.75,-177"/>
<polygon fill="black" stroke="black" points="1005.75,-180.5 1015.75,-177 1005.75,-173.5 1005.75,-180.5"/>
</g>
<!-- BookStatisticsFilterComponent  -->
<g id="node13" class="node">
<title>BookStatisticsFilterComponent </title>
<polygon fill="#fb8072" stroke="black" points="1345.05,-252 1148.95,-252 1148.95,-216 1345.05,-216 1345.05,-252"/>
<text text-anchor="middle" x="1247" y="-229.8" font-family="Times,serif" font-size="14.00">BookStatisticsFilterComponent </text>
</g>
<!-- ShopModule&#45;&gt;BookStatisticsFilterComponent  -->
<g id="edge12" class="edge">
<title>ShopModule&#45;&gt;BookStatisticsFilterComponent </title>
<path fill="none" stroke="black" stroke-dasharray="5,2" d="M1104.17,-182C1131.49,-182 1161.37,-182 1161.37,-182 1161.37,-182 1161.37,-205.81 1161.37,-205.81"/>
<polygon fill="black" stroke="black" points="1157.87,-205.81 1161.37,-215.81 1164.87,-205.81 1157.87,-205.81"/>
</g>
<!-- ClientInfoComponent  -->
<g id="node14" class="node">
<title>ClientInfoComponent </title>
<polygon fill="#fb8072" stroke="black" points="1131.38,-252 988.62,-252 988.62,-216 1131.38,-216 1131.38,-252"/>
<text text-anchor="middle" x="1060" y="-229.8" font-family="Times,serif" font-size="14.00">ClientInfoComponent </text>
</g>
<!-- ShopModule&#45;&gt;ClientInfoComponent  -->
<g id="edge13" class="edge">
<title>ShopModule&#45;&gt;ClientInfoComponent </title>
<path fill="none" stroke="black" stroke-dasharray="5,2" d="M1060,-187.11C1060,-187.11 1060,-205.99 1060,-205.99"/>
<polygon fill="black" stroke="black" points="1056.5,-205.99 1060,-215.99 1063.5,-205.99 1056.5,-205.99"/>
</g>
<!-- ShoppingCartButtonComponent  -->
<g id="node15" class="node">
<title>ShoppingCartButtonComponent </title>
<polygon fill="#fb8072" stroke="black" points="970.23,-252 769.77,-252 769.77,-216 970.23,-216 970.23,-252"/>
<text text-anchor="middle" x="870" y="-229.8" font-family="Times,serif" font-size="14.00">ShoppingCartButtonComponent </text>
</g>
<!-- ShopModule&#45;&gt;ShoppingCartButtonComponent  -->
<g id="edge14" class="edge">
<title>ShopModule&#45;&gt;ShoppingCartButtonComponent </title>
<path fill="none" stroke="black" stroke-dasharray="5,2" d="M1015.69,-182C988.28,-182 958.3,-182 958.3,-182 958.3,-182 958.3,-205.81 958.3,-205.81"/>
<polygon fill="black" stroke="black" points="954.8,-205.81 958.3,-215.81 961.8,-205.81 954.8,-205.81"/>
</g>
<!-- AuthenticationModule -->
<g id="node9" class="node">
<title>AuthenticationModule</title>
<polygon fill="#8dd3c7" stroke="black" points="1967.25,-122 1964.25,-126 1943.25,-126 1940.25,-122 1824.75,-122 1824.75,-86 1967.25,-86 1967.25,-122"/>
<text text-anchor="middle" x="1896" y="-99.8" font-family="Times,serif" font-size="14.00">AuthenticationModule</text>
</g>
<!-- AuthenticationModule&#45;&gt;ShopModule -->
<g id="edge8" class="edge">
<title>AuthenticationModule&#45;&gt;ShopModule</title>
<path fill="none" stroke="black" d="M1896,-122.04C1896,-143.66 1896,-177 1896,-177 1896,-177 1114.36,-177 1114.36,-177"/>
<polygon fill="black" stroke="black" points="1114.36,-173.5 1104.36,-177 1114.36,-180.5 1114.36,-173.5"/>
</g>
<!-- InputRangeDirective -->
<g id="node10" class="node">
<title>InputRangeDirective</title>
<polygon fill="#8dd3c7" stroke="black" points="1806.9,-122 1803.9,-126 1782.9,-126 1779.9,-122 1673.1,-122 1673.1,-86 1806.9,-86 1806.9,-122"/>
<text text-anchor="middle" x="1740" y="-99.8" font-family="Times,serif" font-size="14.00">InputRangeDirective</text>
</g>
<!-- InputRangeDirective&#45;&gt;ShopModule -->
<g id="edge9" class="edge">
<title>InputRangeDirective&#45;&gt;ShopModule</title>
<path fill="none" stroke="black" d="M1740,-122.22C1740,-142.37 1740,-172 1740,-172 1740,-172 1114.35,-172 1114.35,-172"/>
<polygon fill="black" stroke="black" points="1114.35,-168.5 1104.35,-172 1114.35,-175.5 1114.35,-168.5"/>
</g>
<!-- LibraryModule -->
<g id="node11" class="node">
<title>LibraryModule</title>
<polygon fill="#8dd3c7" stroke="black" points="1655.53,-122 1652.53,-126 1631.53,-126 1628.53,-122 1554.47,-122 1554.47,-86 1655.53,-86 1655.53,-122"/>
<text text-anchor="middle" x="1605" y="-99.8" font-family="Times,serif" font-size="14.00">LibraryModule</text>
</g>
<!-- LibraryModule&#45;&gt;ShopModule -->
<g id="edge10" class="edge">
<title>LibraryModule&#45;&gt;ShopModule</title>
<path fill="none" stroke="black" d="M1605,-122.22C1605,-140.83 1605,-167 1605,-167 1605,-167 1114.6,-167 1114.6,-167"/>
<polygon fill="black" stroke="black" points="1114.6,-163.5 1104.6,-167 1114.6,-170.5 1114.6,-163.5"/>
</g>
<!-- LoadingComponent -->
<g id="node12" class="node">
<title>LoadingComponent</title>
<polygon fill="#8dd3c7" stroke="black" points="1535.99,-122 1532.99,-126 1511.99,-126 1508.99,-122 1408.01,-122 1408.01,-86 1535.99,-86 1535.99,-122"/>
<text text-anchor="middle" x="1472" y="-99.8" font-family="Times,serif" font-size="14.00">LoadingComponent</text>
</g>
<!-- LoadingComponent&#45;&gt;ShopModule -->
<g id="edge11" class="edge">
<title>LoadingComponent&#45;&gt;ShopModule</title>
<path fill="none" stroke="black" d="M1472,-122.03C1472,-139.06 1472,-162 1472,-162 1472,-162 1114.48,-162 1114.48,-162"/>
<polygon fill="black" stroke="black" points="1114.48,-158.5 1104.48,-162 1114.48,-165.5 1114.48,-158.5"/>
</g>
</g>
</svg>
