<?xml version="1.0" encoding="UTF-8" standalone="no"?>
<!DOCTYPE svg PUBLIC "-//W3C//DTD SVG 1.1//EN"
 "http://www.w3.org/Graphics/SVG/1.1/DTD/svg11.dtd">
<!-- Generated by graphviz version 2.47.0 (20210316.0004)
 -->
<!-- Title: dependencies Pages: 1 -->
<svg width="1999pt" height="284pt"
 viewBox="0.00 0.00 1999.00 284.00" xmlns="http://www.w3.org/2000/svg" xmlns:xlink="http://www.w3.org/1999/xlink">
<g id="graph0" class="graph" transform="scale(1 1) rotate(0) translate(4 280)">
<title>dependencies</title>
<polygon fill="white" stroke="transparent" points="-4,4 -4,-280 1995,-280 1995,4 -4,4"/>
<text text-anchor="start" x="974.51" y="-42.4" font-family="Times-12" font-weight="bold" font-size="14.00">Legend</text>
<polygon fill="#ffffb3" stroke="transparent" points="761.5,-10 761.5,-30 781.5,-30 781.5,-10 761.5,-10"/>
<text text-anchor="start" x="785.13" y="-15.4" font-family="Times-12" font-size="14.00"> &#160;Declarations</text>
<polygon fill="#8dd3c7" stroke="transparent" points="874.5,-10 874.5,-30 894.5,-30 894.5,-10 874.5,-10"/>
<text text-anchor="start" x="898.23" y="-15.4" font-family="Times-12" font-size="14.00"> &#160;Module</text>
<polygon fill="#80b1d3" stroke="transparent" points="960.5,-10 960.5,-30 980.5,-30 980.5,-10 960.5,-10"/>
<text text-anchor="start" x="984.28" y="-15.4" font-family="Times-12" font-size="14.00"> &#160;Bootstrap</text>
<polygon fill="#fdb462" stroke="transparent" points="1057.5,-10 1057.5,-30 1077.5,-30 1077.5,-10 1057.5,-10"/>
<text text-anchor="start" x="1081.17" y="-15.4" font-family="Times-12" font-size="14.00"> &#160;Providers</text>
<polygon fill="#fb8072" stroke="transparent" points="1153.5,-10 1153.5,-30 1173.5,-30 1173.5,-10 1153.5,-10"/>
<text text-anchor="start" x="1177.23" y="-15.4" font-family="Times-12" font-size="14.00"> &#160;Exports</text>
<g id="clust1" class="cluster">
<title>cluster_ShopModule</title>
<polygon fill="none" stroke="black" stroke-dasharray="1,5" points="8,-70 8,-268 1983,-268 1983,-70 8,-70"/>
</g>
<g id="clust11" class="cluster">
<title>cluster_ShopModule_exports</title>
<polygon fill="none" stroke="black" points="602,-208 602,-260 1193,-260 1193,-208 602,-208"/>
</g>
<g id="clust2" class="cluster">
<title>cluster_ShopModule_declarations</title>
<polygon fill="none" stroke="black" points="599,-78 599,-130 1975,-130 1975,-78 599,-78"/>
</g>
<g id="clust10" class="cluster">
<title>cluster_ShopModule_imports</title>
<polygon fill="none" stroke="black" points="16,-78 16,-130 591,-130 591,-78 16,-78"/>
</g>
<!-- BookStatisticsFilterComponent -->
<g id="node1" class="node">
<title>BookStatisticsFilterComponent</title>
<polygon fill="#ffffb3" stroke="black" points="1967.05,-122 1774.95,-122 1774.95,-86 1967.05,-86 1967.05,-122"/>
<text text-anchor="middle" x="1871" y="-99.8" font-family="Times,serif" font-size="14.00">BookStatisticsFilterComponent</text>
</g>
<!-- ShopModule -->
<g id="node8" class="node">
<title>ShopModule</title>
<polygon fill="#8dd3c7" stroke="black" points="944.33,-187 941.33,-191 920.33,-191 917.33,-187 855.67,-187 855.67,-151 944.33,-151 944.33,-187"/>
<text text-anchor="middle" x="900" y="-164.8" font-family="Times,serif" font-size="14.00">ShopModule</text>
</g>
<!-- BookStatisticsFilterComponent&#45;&gt;ShopModule -->
<g id="edge1" class="edge">
<title>BookStatisticsFilterComponent&#45;&gt;ShopModule</title>
<path fill="none" stroke="black" d="M1871,-122.04C1871,-143.66 1871,-177 1871,-177 1871,-177 954.25,-177 954.25,-177"/>
<polygon fill="black" stroke="black" points="954.25,-173.5 944.25,-177 954.24,-180.5 954.25,-173.5"/>
</g>
<!-- BookStockReplenishmentComponent -->
<g id="node2" class="node">
<title>BookStockReplenishmentComponent</title>
<polygon fill="#ffffb3" stroke="black" points="1756.54,-122 1529.46,-122 1529.46,-86 1756.54,-86 1756.54,-122"/>
<text text-anchor="middle" x="1643" y="-99.8" font-family="Times,serif" font-size="14.00">BookStockReplenishmentComponent</text>
</g>
<!-- BookStockReplenishmentComponent&#45;&gt;ShopModule -->
<g id="edge2" class="edge">
<title>BookStockReplenishmentComponent&#45;&gt;ShopModule</title>
<path fill="none" stroke="black" d="M1643,-122.22C1643,-142.37 1643,-172 1643,-172 1643,-172 954.25,-172 954.25,-172"/>
<polygon fill="black" stroke="black" points="954.25,-168.5 944.25,-172 954.25,-175.5 954.25,-168.5"/>
</g>
<!-- CartDialogComponent -->
<g id="node3" class="node">
<title>CartDialogComponent</title>
<polygon fill="#ffffb3" stroke="black" points="1510.54,-122 1367.46,-122 1367.46,-86 1510.54,-86 1510.54,-122"/>
<text text-anchor="middle" x="1439" y="-99.8" font-family="Times,serif" font-size="14.00">CartDialogComponent</text>
</g>
<!-- CartDialogComponent&#45;&gt;ShopModule -->
<g id="edge3" class="edge">
<title>CartDialogComponent&#45;&gt;ShopModule</title>
<path fill="none" stroke="black" d="M1439,-122.22C1439,-140.83 1439,-167 1439,-167 1439,-167 954.57,-167 954.57,-167"/>
<polygon fill="black" stroke="black" points="954.57,-163.5 944.57,-167 954.57,-170.5 954.57,-163.5"/>
</g>
<!-- ClientChangeDialogComponent -->
<g id="node4" class="node">
<title>ClientChangeDialogComponent</title>
<polygon fill="#ffffb3" stroke="black" points="1349.42,-122 1152.58,-122 1152.58,-86 1349.42,-86 1349.42,-122"/>
<text text-anchor="middle" x="1251" y="-99.8" font-family="Times,serif" font-size="14.00">ClientChangeDialogComponent</text>
</g>
<!-- ClientChangeDialogComponent&#45;&gt;ShopModule -->
<g id="edge4" class="edge">
<title>ClientChangeDialogComponent&#45;&gt;ShopModule</title>
<path fill="none" stroke="black" d="M1168.91,-122.03C1168.91,-139.06 1168.91,-162 1168.91,-162 1168.91,-162 954.4,-162 954.4,-162"/>
<polygon fill="black" stroke="black" points="954.4,-158.5 944.4,-162 954.4,-165.5 954.4,-158.5"/>
</g>
<!-- ClientInfoComponent -->
<g id="node5" class="node">
<title>ClientInfoComponent</title>
<polygon fill="#ffffb3" stroke="black" points="1134.38,-122 995.62,-122 995.62,-86 1134.38,-86 1134.38,-122"/>
<text text-anchor="middle" x="1065" y="-99.8" font-family="Times,serif" font-size="14.00">ClientInfoComponent</text>
</g>
<!-- ClientInfoComponent&#45;&gt;ShopModule -->
<g id="edge5" class="edge">
<title>ClientInfoComponent&#45;&gt;ShopModule</title>
<path fill="none" stroke="black" d="M1088.15,-122.24C1088.15,-137.57 1088.15,-157 1088.15,-157 1088.15,-157 954.59,-157 954.59,-157"/>
<polygon fill="black" stroke="black" points="954.59,-153.5 944.59,-157 954.59,-160.5 954.59,-153.5"/>
</g>
<!-- InputMaxStockDirective -->
<g id="node6" class="node">
<title>InputMaxStockDirective</title>
<polygon fill="#ffffb3" stroke="black" points="977.68,-122 822.32,-122 822.32,-86 977.68,-86 977.68,-122"/>
<text text-anchor="middle" x="900" y="-99.8" font-family="Times,serif" font-size="14.00">InputMaxStockDirective</text>
</g>
<!-- InputMaxStockDirective&#45;&gt;ShopModule -->
<g id="edge6" class="edge">
<title>InputMaxStockDirective&#45;&gt;ShopModule</title>
<path fill="none" stroke="black" d="M900,-122.11C900,-122.11 900,-140.99 900,-140.99"/>
<polygon fill="black" stroke="black" points="896.5,-140.99 900,-150.99 903.5,-140.99 896.5,-140.99"/>
</g>
<!-- ShoppingCartButtonComponent -->
<g id="node7" class="node">
<title>ShoppingCartButtonComponent</title>
<polygon fill="#ffffb3" stroke="black" points="804.73,-122 607.27,-122 607.27,-86 804.73,-86 804.73,-122"/>
<text text-anchor="middle" x="706" y="-99.8" font-family="Times,serif" font-size="14.00">ShoppingCartButtonComponent</text>
</g>
<!-- ShoppingCartButtonComponent&#45;&gt;ShopModule -->
<g id="edge7" class="edge">
<title>ShoppingCartButtonComponent&#45;&gt;ShopModule</title>
<path fill="none" stroke="black" d="M674.63,-122.24C674.63,-137.57 674.63,-157 674.63,-157 674.63,-157 845.74,-157 845.74,-157"/>
<polygon fill="black" stroke="black" points="845.74,-160.5 855.74,-157 845.74,-153.5 845.74,-160.5"/>
</g>
<!-- BookStatisticsFilterComponent  -->
<g id="node13" class="node">
<title>BookStatisticsFilterComponent </title>
<polygon fill="#fb8072" stroke="black" points="1185.05,-252 988.95,-252 988.95,-216 1185.05,-216 1185.05,-252"/>
<text text-anchor="middle" x="1087" y="-229.8" font-family="Times,serif" font-size="14.00">BookStatisticsFilterComponent </text>
</g>
<!-- ShopModule&#45;&gt;BookStatisticsFilterComponent  -->
<g id="edge12" class="edge">
<title>ShopModule&#45;&gt;BookStatisticsFilterComponent </title>
<path fill="none" stroke="black" stroke-dasharray="5,2" d="M944.49,-182C986.1,-182 1041.85,-182 1041.85,-182 1041.85,-182 1041.85,-205.81 1041.85,-205.81"/>
<polygon fill="black" stroke="black" points="1038.35,-205.81 1041.85,-215.81 1045.35,-205.81 1038.35,-205.81"/>
</g>
<!-- ClientInfoComponent  -->
<g id="node14" class="node">
<title>ClientInfoComponent </title>
<polygon fill="#fb8072" stroke="black" points="971.38,-252 828.62,-252 828.62,-216 971.38,-216 971.38,-252"/>
<text text-anchor="middle" x="900" y="-229.8" font-family="Times,serif" font-size="14.00">ClientInfoComponent </text>
</g>
<!-- ShopModule&#45;&gt;ClientInfoComponent  -->
<g id="edge13" class="edge">
<title>ShopModule&#45;&gt;ClientInfoComponent </title>
<path fill="none" stroke="black" stroke-dasharray="5,2" d="M900,-187.11C900,-187.11 900,-205.99 900,-205.99"/>
<polygon fill="black" stroke="black" points="896.5,-205.99 900,-215.99 903.5,-205.99 896.5,-205.99"/>
</g>
<!-- ShoppingCartButtonComponent  -->
<g id="node15" class="node">
<title>ShoppingCartButtonComponent </title>
<polygon fill="#fb8072" stroke="black" points="810.23,-252 609.77,-252 609.77,-216 810.23,-216 810.23,-252"/>
<text text-anchor="middle" x="710" y="-229.8" font-family="Times,serif" font-size="14.00">ShoppingCartButtonComponent </text>
</g>
<!-- ShopModule&#45;&gt;ShoppingCartButtonComponent  -->
<g id="edge14" class="edge">
<title>ShopModule&#45;&gt;ShoppingCartButtonComponent </title>
<path fill="none" stroke="black" stroke-dasharray="5,2" d="M855.75,-182C808.28,-182 739.62,-182 739.62,-182 739.62,-182 739.62,-205.81 739.62,-205.81"/>
<polygon fill="black" stroke="black" points="736.12,-205.81 739.62,-215.81 743.12,-205.81 736.12,-205.81"/>
</g>
<!-- AuthenticationModule -->
<g id="node9" class="node">
<title>AuthenticationModule</title>
<polygon fill="#8dd3c7" stroke="black" points="583.25,-122 580.25,-126 559.25,-126 556.25,-122 440.75,-122 440.75,-86 583.25,-86 583.25,-122"/>
<text text-anchor="middle" x="512" y="-99.8" font-family="Times,serif" font-size="14.00">AuthenticationModule</text>
</g>
<!-- AuthenticationModule&#45;&gt;ShopModule -->
<g id="edge8" class="edge">
<title>AuthenticationModule&#45;&gt;ShopModule</title>
<path fill="none" stroke="black" d="M512,-122.03C512,-139.06 512,-162 512,-162 512,-162 845.49,-162 845.49,-162"/>
<polygon fill="black" stroke="black" points="845.49,-165.5 855.49,-162 845.49,-158.5 845.49,-165.5"/>
</g>
<!-- InputRangeDirective -->
<g id="node10" class="node">
<title>InputRangeDirective</title>
<polygon fill="#8dd3c7" stroke="black" points="422.9,-122 419.9,-126 398.9,-126 395.9,-122 289.1,-122 289.1,-86 422.9,-86 422.9,-122"/>
<text text-anchor="middle" x="356" y="-99.8" font-family="Times,serif" font-size="14.00">InputRangeDirective</text>
</g>
<!-- InputRangeDirective&#45;&gt;ShopModule -->
<g id="edge9" class="edge">
<title>InputRangeDirective&#45;&gt;ShopModule</title>
<path fill="none" stroke="black" d="M356,-122.22C356,-140.83 356,-167 356,-167 356,-167 845.48,-167 845.48,-167"/>
<polygon fill="black" stroke="black" points="845.48,-170.5 855.48,-167 845.48,-163.5 845.48,-170.5"/>
</g>
<!-- LibraryModule -->
<g id="node11" class="node">
<title>LibraryModule</title>
<polygon fill="#8dd3c7" stroke="black" points="271.53,-122 268.53,-126 247.53,-126 244.53,-122 170.47,-122 170.47,-86 271.53,-86 271.53,-122"/>
<text text-anchor="middle" x="221" y="-99.8" font-family="Times,serif" font-size="14.00">LibraryModule</text>
</g>
<!-- LibraryModule&#45;&gt;ShopModule -->
<g id="edge10" class="edge">
<title>LibraryModule&#45;&gt;ShopModule</title>
<path fill="none" stroke="black" d="M221,-122.22C221,-142.37 221,-172 221,-172 221,-172 845.71,-172 845.71,-172"/>
<polygon fill="black" stroke="black" points="845.71,-175.5 855.71,-172 845.71,-168.5 845.71,-175.5"/>
</g>
<!-- LoadingComponent -->
<g id="node12" class="node">
<title>LoadingComponent</title>
<polygon fill="#8dd3c7" stroke="black" points="151.99,-122 148.99,-126 127.99,-126 124.99,-122 24.01,-122 24.01,-86 151.99,-86 151.99,-122"/>
<text text-anchor="middle" x="88" y="-99.8" font-family="Times,serif" font-size="14.00">LoadingComponent</text>
</g>
<!-- LoadingComponent&#45;&gt;ShopModule -->
<g id="edge11" class="edge">
<title>LoadingComponent&#45;&gt;ShopModule</title>
<path fill="none" stroke="black" d="M88,-122.04C88,-143.66 88,-177 88,-177 88,-177 845.77,-177 845.77,-177"/>
<polygon fill="black" stroke="black" points="845.77,-180.5 855.77,-177 845.77,-173.5 845.77,-180.5"/>
</g>
</g>
</svg>
