<?xml version="1.0" encoding="UTF-8" standalone="no"?>
<!DOCTYPE svg PUBLIC "-//W3C//DTD SVG 1.1//EN"
 "http://www.w3.org/Graphics/SVG/1.1/DTD/svg11.dtd">
<!-- Generated by graphviz version 2.47.0 (20210316.0004)
 -->
<!-- Title: dependencies Pages: 1 -->
<svg width="2145pt" height="284pt"
 viewBox="0.00 0.00 2145.00 284.00" xmlns="http://www.w3.org/2000/svg" xmlns:xlink="http://www.w3.org/1999/xlink">
<g id="graph0" class="graph" transform="scale(1 1) rotate(0) translate(4 280)">
<title>dependencies</title>
<polygon fill="white" stroke="transparent" points="-4,4 -4,-280 2141,-280 2141,4 -4,4"/>
<text text-anchor="start" x="1047.51" y="-42.4" font-family="Times-12" font-weight="bold" font-size="14.00">Legend</text>
<polygon fill="#ffffb3" stroke="transparent" points="834.5,-10 834.5,-30 854.5,-30 854.5,-10 834.5,-10"/>
<text text-anchor="start" x="858.13" y="-15.4" font-family="Times-12" font-size="14.00"> &#160;Declarations</text>
<polygon fill="#8dd3c7" stroke="transparent" points="947.5,-10 947.5,-30 967.5,-30 967.5,-10 947.5,-10"/>
<text text-anchor="start" x="971.23" y="-15.4" font-family="Times-12" font-size="14.00"> &#160;Module</text>
<polygon fill="#80b1d3" stroke="transparent" points="1033.5,-10 1033.5,-30 1053.5,-30 1053.5,-10 1033.5,-10"/>
<text text-anchor="start" x="1057.28" y="-15.4" font-family="Times-12" font-size="14.00"> &#160;Bootstrap</text>
<polygon fill="#fdb462" stroke="transparent" points="1130.5,-10 1130.5,-30 1150.5,-30 1150.5,-10 1130.5,-10"/>
<text text-anchor="start" x="1154.17" y="-15.4" font-family="Times-12" font-size="14.00"> &#160;Providers</text>
<polygon fill="#fb8072" stroke="transparent" points="1226.5,-10 1226.5,-30 1246.5,-30 1246.5,-10 1226.5,-10"/>
<text text-anchor="start" x="1250.23" y="-15.4" font-family="Times-12" font-size="14.00"> &#160;Exports</text>
<g id="clust1" class="cluster">
<title>cluster_ShopModule</title>
<polygon fill="none" stroke="black" stroke-dasharray="1,5" points="8,-70 8,-268 2129,-268 2129,-70 8,-70"/>
</g>
<g id="clust2" class="cluster">
<title>cluster_ShopModule_declarations</title>
<polygon fill="none" stroke="black" points="745,-78 745,-130 2121,-130 2121,-78 745,-78"/>
</g>
<g id="clust11" class="cluster">
<title>cluster_ShopModule_exports</title>
<polygon fill="none" stroke="black" points="651,-208 651,-260 1242,-260 1242,-208 651,-208"/>
</g>
<g id="clust10" class="cluster">
<title>cluster_ShopModule_imports</title>
<polygon fill="none" stroke="black" points="16,-78 16,-130 737,-130 737,-78 16,-78"/>
</g>
<!-- BookStatisticsFilterComponent -->
<g id="node1" class="node">
<title>BookStatisticsFilterComponent</title>
<polygon fill="#ffffb3" stroke="black" points="2113.05,-122 1920.95,-122 1920.95,-86 2113.05,-86 2113.05,-122"/>
<text text-anchor="middle" x="2017" y="-99.8" font-family="Times,serif" font-size="14.00">BookStatisticsFilterComponent</text>
</g>
<!-- ShopModule -->
<g id="node8" class="node">
<title>ShopModule</title>
<polygon fill="#8dd3c7" stroke="black" points="993.33,-187 990.33,-191 969.33,-191 966.33,-187 904.67,-187 904.67,-151 993.33,-151 993.33,-187"/>
<text text-anchor="middle" x="949" y="-164.8" font-family="Times,serif" font-size="14.00">ShopModule</text>
</g>
<!-- BookStatisticsFilterComponent&#45;&gt;ShopModule -->
<g id="edge1" class="edge">
<title>BookStatisticsFilterComponent&#45;&gt;ShopModule</title>
<path fill="none" stroke="black" d="M2017,-122.04C2017,-143.66 2017,-177 2017,-177 2017,-177 1003.19,-177 1003.19,-177"/>
<polygon fill="black" stroke="black" points="1003.19,-173.5 993.19,-177 1003.19,-180.5 1003.19,-173.5"/>
</g>
<!-- BookStockReplenishmentComponent -->
<g id="node2" class="node">
<title>BookStockReplenishmentComponent</title>
<polygon fill="#ffffb3" stroke="black" points="1902.54,-122 1675.46,-122 1675.46,-86 1902.54,-86 1902.54,-122"/>
<text text-anchor="middle" x="1789" y="-99.8" font-family="Times,serif" font-size="14.00">BookStockReplenishmentComponent</text>
</g>
<!-- BookStockReplenishmentComponent&#45;&gt;ShopModule -->
<g id="edge2" class="edge">
<title>BookStockReplenishmentComponent&#45;&gt;ShopModule</title>
<path fill="none" stroke="black" d="M1789,-122.22C1789,-142.37 1789,-172 1789,-172 1789,-172 1003.27,-172 1003.27,-172"/>
<polygon fill="black" stroke="black" points="1003.27,-168.5 993.27,-172 1003.27,-175.5 1003.27,-168.5"/>
</g>
<!-- CartDialogComponent -->
<g id="node3" class="node">
<title>CartDialogComponent</title>
<polygon fill="#ffffb3" stroke="black" points="1656.54,-122 1513.46,-122 1513.46,-86 1656.54,-86 1656.54,-122"/>
<text text-anchor="middle" x="1585" y="-99.8" font-family="Times,serif" font-size="14.00">CartDialogComponent</text>
</g>
<!-- CartDialogComponent&#45;&gt;ShopModule -->
<g id="edge3" class="edge">
<title>CartDialogComponent&#45;&gt;ShopModule</title>
<path fill="none" stroke="black" d="M1585,-122.22C1585,-140.83 1585,-167 1585,-167 1585,-167 1003.22,-167 1003.22,-167"/>
<polygon fill="black" stroke="black" points="1003.22,-163.5 993.22,-167 1003.22,-170.5 1003.22,-163.5"/>
</g>
<!-- ClientChangeDialogComponent -->
<g id="node4" class="node">
<title>ClientChangeDialogComponent</title>
<polygon fill="#ffffb3" stroke="black" points="1495.42,-122 1298.58,-122 1298.58,-86 1495.42,-86 1495.42,-122"/>
<text text-anchor="middle" x="1397" y="-99.8" font-family="Times,serif" font-size="14.00">ClientChangeDialogComponent</text>
</g>
<!-- ClientChangeDialogComponent&#45;&gt;ShopModule -->
<g id="edge4" class="edge">
<title>ClientChangeDialogComponent&#45;&gt;ShopModule</title>
<path fill="none" stroke="black" d="M1397,-122.03C1397,-139.06 1397,-162 1397,-162 1397,-162 1003.18,-162 1003.18,-162"/>
<polygon fill="black" stroke="black" points="1003.18,-158.5 993.18,-162 1003.18,-165.5 1003.18,-158.5"/>
</g>
<!-- ClientInfoComponent -->
<g id="node5" class="node">
<title>ClientInfoComponent</title>
<polygon fill="#ffffb3" stroke="black" points="1280.38,-122 1141.62,-122 1141.62,-86 1280.38,-86 1280.38,-122"/>
<text text-anchor="middle" x="1211" y="-99.8" font-family="Times,serif" font-size="14.00">ClientInfoComponent</text>
</g>
<!-- ClientInfoComponent&#45;&gt;ShopModule -->
<g id="edge5" class="edge">
<title>ClientInfoComponent&#45;&gt;ShopModule</title>
<path fill="none" stroke="black" d="M1187.79,-122.24C1187.79,-137.57 1187.79,-157 1187.79,-157 1187.79,-157 1003.36,-157 1003.36,-157"/>
<polygon fill="black" stroke="black" points="1003.36,-153.5 993.36,-157 1003.36,-160.5 1003.36,-153.5"/>
</g>
<!-- InputMaxStockDirective -->
<g id="node6" class="node">
<title>InputMaxStockDirective</title>
<polygon fill="#ffffb3" stroke="black" points="1123.68,-122 968.32,-122 968.32,-86 1123.68,-86 1123.68,-122"/>
<text text-anchor="middle" x="1046" y="-99.8" font-family="Times,serif" font-size="14.00">InputMaxStockDirective</text>
</g>
<!-- InputMaxStockDirective&#45;&gt;ShopModule -->
<g id="edge6" class="edge">
<title>InputMaxStockDirective&#45;&gt;ShopModule</title>
<path fill="none" stroke="black" d="M980.79,-122.11C980.79,-122.11 980.79,-140.99 980.79,-140.99"/>
<polygon fill="black" stroke="black" points="977.29,-140.99 980.79,-150.99 984.29,-140.99 977.29,-140.99"/>
</g>
<!-- ShoppingCartButtonComponent -->
<g id="node7" class="node">
<title>ShoppingCartButtonComponent</title>
<polygon fill="#ffffb3" stroke="black" points="950.73,-122 753.27,-122 753.27,-86 950.73,-86 950.73,-122"/>
<text text-anchor="middle" x="852" y="-99.8" font-family="Times,serif" font-size="14.00">ShoppingCartButtonComponent</text>
</g>
<!-- ShoppingCartButtonComponent&#45;&gt;ShopModule -->
<g id="edge7" class="edge">
<title>ShoppingCartButtonComponent&#45;&gt;ShopModule</title>
<path fill="none" stroke="black" d="M927.72,-122.11C927.72,-122.11 927.72,-140.99 927.72,-140.99"/>
<polygon fill="black" stroke="black" points="924.22,-140.99 927.72,-150.99 931.22,-140.99 924.22,-140.99"/>
</g>
<!-- BookStatisticsFilterComponent  -->
<g id="node14" class="node">
<title>BookStatisticsFilterComponent </title>
<polygon fill="#fb8072" stroke="black" points="1234.05,-252 1037.95,-252 1037.95,-216 1234.05,-216 1234.05,-252"/>
<text text-anchor="middle" x="1136" y="-229.8" font-family="Times,serif" font-size="14.00">BookStatisticsFilterComponent </text>
</g>
<!-- ShopModule&#45;&gt;BookStatisticsFilterComponent  -->
<g id="edge13" class="edge">
<title>ShopModule&#45;&gt;BookStatisticsFilterComponent </title>
<path fill="none" stroke="black" stroke-dasharray="5,2" d="M993.25,-182C1031.53,-182 1080.78,-182 1080.78,-182 1080.78,-182 1080.78,-205.81 1080.78,-205.81"/>
<polygon fill="black" stroke="black" points="1077.28,-205.81 1080.78,-215.81 1084.28,-205.81 1077.28,-205.81"/>
</g>
<!-- ClientInfoComponent  -->
<g id="node15" class="node">
<title>ClientInfoComponent </title>
<polygon fill="#fb8072" stroke="black" points="1020.38,-252 877.62,-252 877.62,-216 1020.38,-216 1020.38,-252"/>
<text text-anchor="middle" x="949" y="-229.8" font-family="Times,serif" font-size="14.00">ClientInfoComponent </text>
</g>
<!-- ShopModule&#45;&gt;ClientInfoComponent  -->
<g id="edge14" class="edge">
<title>ShopModule&#45;&gt;ClientInfoComponent </title>
<path fill="none" stroke="black" stroke-dasharray="5,2" d="M949,-187.11C949,-187.11 949,-205.99 949,-205.99"/>
<polygon fill="black" stroke="black" points="945.5,-205.99 949,-215.99 952.5,-205.99 945.5,-205.99"/>
</g>
<!-- ShoppingCartButtonComponent  -->
<g id="node16" class="node">
<title>ShoppingCartButtonComponent </title>
<polygon fill="#fb8072" stroke="black" points="859.23,-252 658.77,-252 658.77,-216 859.23,-216 859.23,-252"/>
<text text-anchor="middle" x="759" y="-229.8" font-family="Times,serif" font-size="14.00">ShoppingCartButtonComponent </text>
</g>
<!-- ShopModule&#45;&gt;ShoppingCartButtonComponent  -->
<g id="edge15" class="edge">
<title>ShopModule&#45;&gt;ShoppingCartButtonComponent </title>
<path fill="none" stroke="black" stroke-dasharray="5,2" d="M904.65,-182C862.79,-182 806.38,-182 806.38,-182 806.38,-182 806.38,-205.81 806.38,-205.81"/>
<polygon fill="black" stroke="black" points="802.88,-205.81 806.38,-215.81 809.88,-205.81 802.88,-205.81"/>
</g>
<!-- AuthenticationModule -->
<g id="node9" class="node">
<title>AuthenticationModule</title>
<polygon fill="#8dd3c7" stroke="black" points="729.25,-122 726.25,-126 705.25,-126 702.25,-122 586.75,-122 586.75,-86 729.25,-86 729.25,-122"/>
<text text-anchor="middle" x="658" y="-99.8" font-family="Times,serif" font-size="14.00">AuthenticationModule</text>
</g>
<!-- AuthenticationModule&#45;&gt;ShopModule -->
<g id="edge8" class="edge">
<title>AuthenticationModule&#45;&gt;ShopModule</title>
<path fill="none" stroke="black" d="M694.01,-122.24C694.01,-137.57 694.01,-157 694.01,-157 694.01,-157 894.58,-157 894.58,-157"/>
<polygon fill="black" stroke="black" points="894.58,-160.5 904.58,-157 894.58,-153.5 894.58,-160.5"/>
</g>
<!-- InputRangeDirective -->
<g id="node10" class="node">
<title>InputRangeDirective</title>
<polygon fill="#8dd3c7" stroke="black" points="568.9,-122 565.9,-126 544.9,-126 541.9,-122 435.1,-122 435.1,-86 568.9,-86 568.9,-122"/>
<text text-anchor="middle" x="502" y="-99.8" font-family="Times,serif" font-size="14.00">InputRangeDirective</text>
</g>
<!-- InputRangeDirective&#45;&gt;ShopModule -->
<g id="edge9" class="edge">
<title>InputRangeDirective&#45;&gt;ShopModule</title>
<path fill="none" stroke="black" d="M502,-122.03C502,-139.06 502,-162 502,-162 502,-162 894.51,-162 894.51,-162"/>
<polygon fill="black" stroke="black" points="894.51,-165.5 904.51,-162 894.51,-158.5 894.51,-165.5"/>
</g>
<!-- LibraryModule -->
<g id="node11" class="node">
<title>LibraryModule</title>
<polygon fill="#8dd3c7" stroke="black" points="417.53,-122 414.53,-126 393.53,-126 390.53,-122 316.47,-122 316.47,-86 417.53,-86 417.53,-122"/>
<text text-anchor="middle" x="367" y="-99.8" font-family="Times,serif" font-size="14.00">LibraryModule</text>
</g>
<!-- LibraryModule&#45;&gt;ShopModule -->
<g id="edge10" class="edge">
<title>LibraryModule&#45;&gt;ShopModule</title>
<path fill="none" stroke="black" d="M367,-122.22C367,-140.83 367,-167 367,-167 367,-167 894.78,-167 894.78,-167"/>
<polygon fill="black" stroke="black" points="894.78,-170.5 904.78,-167 894.78,-163.5 894.78,-170.5"/>
</g>
<!-- LoadingComponent -->
<g id="node12" class="node">
<title>LoadingComponent</title>
<polygon fill="#8dd3c7" stroke="black" points="297.99,-122 294.99,-126 273.99,-126 270.99,-122 170.01,-122 170.01,-86 297.99,-86 297.99,-122"/>
<text text-anchor="middle" x="234" y="-99.8" font-family="Times,serif" font-size="14.00">LoadingComponent</text>
</g>
<!-- LoadingComponent&#45;&gt;ShopModule -->
<g id="edge11" class="edge">
<title>LoadingComponent&#45;&gt;ShopModule</title>
<path fill="none" stroke="black" d="M234,-122.22C234,-142.37 234,-172 234,-172 234,-172 894.81,-172 894.81,-172"/>
<polygon fill="black" stroke="black" points="894.81,-175.5 904.81,-172 894.81,-168.5 894.81,-175.5"/>
</g>
<!-- NgOptimizedImage -->
<g id="node13" class="node">
<title>NgOptimizedImage</title>
<polygon fill="#8dd3c7" stroke="black" points="151.69,-122 148.69,-126 127.69,-126 124.69,-122 24.31,-122 24.31,-86 151.69,-86 151.69,-122"/>
<text text-anchor="middle" x="88" y="-99.8" font-family="Times,serif" font-size="14.00">NgOptimizedImage</text>
</g>
<!-- NgOptimizedImage&#45;&gt;ShopModule -->
<g id="edge12" class="edge">
<title>NgOptimizedImage&#45;&gt;ShopModule</title>
<path fill="none" stroke="black" d="M88,-122.04C88,-143.66 88,-177 88,-177 88,-177 894.82,-177 894.82,-177"/>
<polygon fill="black" stroke="black" points="894.82,-180.5 904.82,-177 894.82,-173.5 894.82,-180.5"/>
</g>
</g>
</svg>
