<?xml version="1.0" encoding="UTF-8" standalone="no"?>
<!DOCTYPE svg PUBLIC "-//W3C//DTD SVG 1.1//EN"
 "http://www.w3.org/Graphics/SVG/1.1/DTD/svg11.dtd">
<!-- Generated by graphviz version 2.47.0 (20210316.0004)
 -->
<!-- Title: dependencies Pages: 1 -->
<svg width="697pt" height="284pt"
 viewBox="0.00 0.00 697.00 284.00" xmlns="http://www.w3.org/2000/svg" xmlns:xlink="http://www.w3.org/1999/xlink">
<g id="graph0" class="graph" transform="scale(1 1) rotate(0) translate(4 280)">
<title>dependencies</title>
<polygon fill="white" stroke="transparent" points="-4,4 -4,-280 693,-280 693,4 -4,4"/>
<text text-anchor="start" x="323.51" y="-42.4" font-family="Times-12" font-weight="bold" font-size="14.00">Legend</text>
<polygon fill="#ffffb3" stroke="transparent" points="110.5,-10 110.5,-30 130.5,-30 130.5,-10 110.5,-10"/>
<text text-anchor="start" x="134.13" y="-15.4" font-family="Times-12" font-size="14.00"> &#160;Declarations</text>
<polygon fill="#8dd3c7" stroke="transparent" points="223.5,-10 223.5,-30 243.5,-30 243.5,-10 223.5,-10"/>
<text text-anchor="start" x="247.23" y="-15.4" font-family="Times-12" font-size="14.00"> &#160;Module</text>
<polygon fill="#80b1d3" stroke="transparent" points="309.5,-10 309.5,-30 329.5,-30 329.5,-10 309.5,-10"/>
<text text-anchor="start" x="333.28" y="-15.4" font-family="Times-12" font-size="14.00"> &#160;Bootstrap</text>
<polygon fill="#fdb462" stroke="transparent" points="406.5,-10 406.5,-30 426.5,-30 426.5,-10 406.5,-10"/>
<text text-anchor="start" x="430.17" y="-15.4" font-family="Times-12" font-size="14.00"> &#160;Providers</text>
<polygon fill="#fb8072" stroke="transparent" points="502.5,-10 502.5,-30 522.5,-30 522.5,-10 502.5,-10"/>
<text text-anchor="start" x="526.23" y="-15.4" font-family="Times-12" font-size="14.00"> &#160;Exports</text>
<g id="clust1" class="cluster">
<title>cluster_CoreModule</title>
<polygon fill="none" stroke="black" stroke-dasharray="1,5" points="8,-70 8,-268 681,-268 681,-70 8,-70"/>
</g>
<g id="clust5" class="cluster">
<title>cluster_CoreModule_imports</title>
<polygon fill="none" stroke="black" points="305,-78 305,-130 673,-130 673,-78 305,-78"/>
</g>
<g id="clust7" class="cluster">
<title>cluster_CoreModule_bootstrap</title>
<polygon fill="none" stroke="black" points="295,-208 295,-260 419,-260 419,-208 295,-208"/>
</g>
<g id="clust2" class="cluster">
<title>cluster_CoreModule_declarations</title>
<polygon fill="none" stroke="black" points="16,-78 16,-130 297,-130 297,-78 16,-78"/>
</g>
<!-- AppComponent -->
<g id="node1" class="node">
<title>AppComponent</title>
<polygon fill="#ffffb3" stroke="black" points="288.94,-122 183.06,-122 183.06,-86 288.94,-86 288.94,-122"/>
<text text-anchor="middle" x="236" y="-99.8" font-family="Times,serif" font-size="14.00">AppComponent</text>
</g>
<!-- CoreModule -->
<g id="node3" class="node">
<title>CoreModule</title>
<polygon fill="#8dd3c7" stroke="black" points="400.26,-187 397.26,-191 376.26,-191 373.26,-187 313.74,-187 313.74,-151 400.26,-151 400.26,-187"/>
<text text-anchor="middle" x="357" y="-164.8" font-family="Times,serif" font-size="14.00">CoreModule</text>
</g>
<!-- AppComponent&#45;&gt;CoreModule -->
<g id="edge1" class="edge">
<title>AppComponent&#45;&gt;CoreModule</title>
<path fill="none" stroke="black" d="M236,-122.02C236,-139.37 236,-163 236,-163 236,-163 303.66,-163 303.66,-163"/>
<polygon fill="black" stroke="black" points="303.66,-166.5 313.66,-163 303.66,-159.5 303.66,-166.5"/>
</g>
<!-- MainViewComponent -->
<g id="node2" class="node">
<title>MainViewComponent</title>
<polygon fill="#ffffb3" stroke="black" points="165.7,-122 24.3,-122 24.3,-86 165.7,-86 165.7,-122"/>
<text text-anchor="middle" x="95" y="-99.8" font-family="Times,serif" font-size="14.00">MainViewComponent</text>
</g>
<!-- MainViewComponent&#45;&gt;CoreModule -->
<g id="edge2" class="edge">
<title>MainViewComponent&#45;&gt;CoreModule</title>
<path fill="none" stroke="black" d="M95,-122.28C95,-143.32 95,-175 95,-175 95,-175 303.74,-175 303.74,-175"/>
<polygon fill="black" stroke="black" points="303.74,-178.5 313.74,-175 303.74,-171.5 303.74,-178.5"/>
</g>
<!-- AppComponent  -->
<g id="node7" class="node">
<title>AppComponent </title>
<polygon fill="#80b1d3" stroke="black" points="411.44,-252 302.56,-252 302.56,-216 411.44,-216 411.44,-252"/>
<text text-anchor="middle" x="357" y="-229.8" font-family="Times,serif" font-size="14.00">AppComponent </text>
</g>
<!-- CoreModule&#45;&gt;AppComponent  -->
<g id="edge6" class="edge">
<title>CoreModule&#45;&gt;AppComponent </title>
<path fill="none" stroke="black" stroke-dasharray="1,5" d="M357,-187.11C357,-187.11 357,-205.99 357,-205.99"/>
<polygon fill="black" stroke="black" points="353.5,-205.99 357,-215.99 360.5,-205.99 353.5,-205.99"/>
</g>
<!-- AuthenticationModule -->
<g id="node4" class="node">
<title>AuthenticationModule</title>
<polygon fill="#8dd3c7" stroke="black" points="665.25,-122 662.25,-126 641.25,-126 638.25,-122 522.75,-122 522.75,-86 665.25,-86 665.25,-122"/>
<text text-anchor="middle" x="594" y="-99.8" font-family="Times,serif" font-size="14.00">AuthenticationModule</text>
</g>
<!-- AuthenticationModule&#45;&gt;CoreModule -->
<g id="edge3" class="edge">
<title>AuthenticationModule&#45;&gt;CoreModule</title>
<path fill="none" stroke="black" d="M594,-122.28C594,-143.32 594,-175 594,-175 594,-175 410.47,-175 410.47,-175"/>
<polygon fill="black" stroke="black" points="410.47,-171.5 400.47,-175 410.47,-178.5 410.47,-171.5"/>
</g>
<!-- ChatModule -->
<g id="node5" class="node">
<title>ChatModule</title>
<polygon fill="#8dd3c7" stroke="black" points="504.99,-122 501.99,-126 480.99,-126 477.99,-122 419.01,-122 419.01,-86 504.99,-86 504.99,-122"/>
<text text-anchor="middle" x="462" y="-99.8" font-family="Times,serif" font-size="14.00">ChatModule</text>
</g>
<!-- ChatModule&#45;&gt;CoreModule -->
<g id="edge4" class="edge">
<title>ChatModule&#45;&gt;CoreModule</title>
<path fill="none" stroke="black" d="M462,-122.02C462,-139.37 462,-163 462,-163 462,-163 410.31,-163 410.31,-163"/>
<polygon fill="black" stroke="black" points="410.31,-159.5 400.31,-163 410.31,-166.5 410.31,-159.5"/>
</g>
<!-- ShopModule -->
<g id="node6" class="node">
<title>ShopModule</title>
<polygon fill="#8dd3c7" stroke="black" points="401.33,-122 398.33,-126 377.33,-126 374.33,-122 312.67,-122 312.67,-86 401.33,-86 401.33,-122"/>
<text text-anchor="middle" x="357" y="-99.8" font-family="Times,serif" font-size="14.00">ShopModule</text>
</g>
<!-- ShopModule&#45;&gt;CoreModule -->
<g id="edge5" class="edge">
<title>ShopModule&#45;&gt;CoreModule</title>
<path fill="none" stroke="black" d="M357,-122.11C357,-122.11 357,-140.99 357,-140.99"/>
<polygon fill="black" stroke="black" points="353.5,-140.99 357,-150.99 360.5,-140.99 353.5,-140.99"/>
</g>
</g>
</svg>
