<?xml version="1.0" encoding="UTF-8" standalone="no"?>
<!DOCTYPE svg PUBLIC "-//W3C//DTD SVG 1.1//EN"
 "http://www.w3.org/Graphics/SVG/1.1/DTD/svg11.dtd">
<!-- Generated by graphviz version 2.47.0 (20210316.0004)
 -->
<!-- Title: dependencies Pages: 1 -->
<svg width="697pt" height="284pt"
 viewBox="0.00 0.00 697.00 284.00" xmlns="http://www.w3.org/2000/svg" xmlns:xlink="http://www.w3.org/1999/xlink">
<g id="graph0" class="graph" transform="scale(1 1) rotate(0) translate(4 280)">
<title>dependencies</title>
<polygon fill="white" stroke="transparent" points="-4,4 -4,-280 693,-280 693,4 -4,4"/>
<text text-anchor="start" x="323.51" y="-42.4" font-family="Times-12" font-weight="bold" font-size="14.00">Legend</text>
<polygon fill="#ffffb3" stroke="transparent" points="110.5,-10 110.5,-30 130.5,-30 130.5,-10 110.5,-10"/>
<text text-anchor="start" x="134.13" y="-15.4" font-family="Times-12" font-size="14.00"> &#160;Declarations</text>
<polygon fill="#8dd3c7" stroke="transparent" points="223.5,-10 223.5,-30 243.5,-30 243.5,-10 223.5,-10"/>
<text text-anchor="start" x="247.23" y="-15.4" font-family="Times-12" font-size="14.00"> &#160;Module</text>
<polygon fill="#80b1d3" stroke="transparent" points="309.5,-10 309.5,-30 329.5,-30 329.5,-10 309.5,-10"/>
<text text-anchor="start" x="333.28" y="-15.4" font-family="Times-12" font-size="14.00"> &#160;Bootstrap</text>
<polygon fill="#fdb462" stroke="transparent" points="406.5,-10 406.5,-30 426.5,-30 426.5,-10 406.5,-10"/>
<text text-anchor="start" x="430.17" y="-15.4" font-family="Times-12" font-size="14.00"> &#160;Providers</text>
<polygon fill="#fb8072" stroke="transparent" points="502.5,-10 502.5,-30 522.5,-30 522.5,-10 502.5,-10"/>
<text text-anchor="start" x="526.23" y="-15.4" font-family="Times-12" font-size="14.00"> &#160;Exports</text>
<g id="clust1" class="cluster">
<title>cluster_CoreModule</title>
<polygon fill="none" stroke="black" stroke-dasharray="1,5" points="8,-70 8,-268 681,-268 681,-70 8,-70"/>
</g>
<g id="clust2" class="cluster">
<title>cluster_CoreModule_declarations</title>
<polygon fill="none" stroke="black" points="392,-78 392,-130 673,-130 673,-78 392,-78"/>
</g>
<g id="clust5" class="cluster">
<title>cluster_CoreModule_imports</title>
<polygon fill="none" stroke="black" points="16,-78 16,-130 384,-130 384,-78 16,-78"/>
</g>
<g id="clust7" class="cluster">
<title>cluster_CoreModule_bootstrap</title>
<polygon fill="none" stroke="black" points="243,-208 243,-260 367,-260 367,-208 243,-208"/>
</g>
<!-- AppComponent -->
<g id="node1" class="node">
<title>AppComponent</title>
<polygon fill="#ffffb3" stroke="black" points="664.94,-122 559.06,-122 559.06,-86 664.94,-86 664.94,-122"/>
<text text-anchor="middle" x="612" y="-99.8" font-family="Times,serif" font-size="14.00">AppComponent</text>
</g>
<!-- CoreModule -->
<g id="node3" class="node">
<title>CoreModule</title>
<polygon fill="#8dd3c7" stroke="black" points="348.26,-187 345.26,-191 324.26,-191 321.26,-187 261.74,-187 261.74,-151 348.26,-151 348.26,-187"/>
<text text-anchor="middle" x="305" y="-164.8" font-family="Times,serif" font-size="14.00">CoreModule</text>
</g>
<!-- AppComponent&#45;&gt;CoreModule -->
<g id="edge1" class="edge">
<title>AppComponent&#45;&gt;CoreModule</title>
<path fill="none" stroke="black" d="M612,-122.28C612,-143.32 612,-175 612,-175 612,-175 358.33,-175 358.33,-175"/>
<polygon fill="black" stroke="black" points="358.33,-171.5 348.33,-175 358.33,-178.5 358.33,-171.5"/>
</g>
<!-- MainViewComponent -->
<g id="node2" class="node">
<title>MainViewComponent</title>
<polygon fill="#ffffb3" stroke="black" points="541.7,-122 400.3,-122 400.3,-86 541.7,-86 541.7,-122"/>
<text text-anchor="middle" x="471" y="-99.8" font-family="Times,serif" font-size="14.00">MainViewComponent</text>
</g>
<!-- MainViewComponent&#45;&gt;CoreModule -->
<g id="edge2" class="edge">
<title>MainViewComponent&#45;&gt;CoreModule</title>
<path fill="none" stroke="black" d="M471,-122.02C471,-139.37 471,-163 471,-163 471,-163 358.61,-163 358.61,-163"/>
<polygon fill="black" stroke="black" points="358.61,-159.5 348.61,-163 358.61,-166.5 358.61,-159.5"/>
</g>
<!-- AppComponent  -->
<g id="node7" class="node">
<title>AppComponent </title>
<polygon fill="#80b1d3" stroke="black" points="359.44,-252 250.56,-252 250.56,-216 359.44,-216 359.44,-252"/>
<text text-anchor="middle" x="305" y="-229.8" font-family="Times,serif" font-size="14.00">AppComponent </text>
</g>
<!-- CoreModule&#45;&gt;AppComponent  -->
<g id="edge6" class="edge">
<title>CoreModule&#45;&gt;AppComponent </title>
<path fill="none" stroke="black" stroke-dasharray="1,5" d="M305,-187.11C305,-187.11 305,-205.99 305,-205.99"/>
<polygon fill="black" stroke="black" points="301.5,-205.99 305,-215.99 308.5,-205.99 301.5,-205.99"/>
</g>
<!-- AuthenticationModule -->
<g id="node4" class="node">
<title>AuthenticationModule</title>
<polygon fill="#8dd3c7" stroke="black" points="376.25,-122 373.25,-126 352.25,-126 349.25,-122 233.75,-122 233.75,-86 376.25,-86 376.25,-122"/>
<text text-anchor="middle" x="305" y="-99.8" font-family="Times,serif" font-size="14.00">AuthenticationModule</text>
</g>
<!-- AuthenticationModule&#45;&gt;CoreModule -->
<g id="edge3" class="edge">
<title>AuthenticationModule&#45;&gt;CoreModule</title>
<path fill="none" stroke="black" d="M305,-122.11C305,-122.11 305,-140.99 305,-140.99"/>
<polygon fill="black" stroke="black" points="301.5,-140.99 305,-150.99 308.5,-140.99 301.5,-140.99"/>
</g>
<!-- ChatModule -->
<g id="node5" class="node">
<title>ChatModule</title>
<polygon fill="#8dd3c7" stroke="black" points="215.99,-122 212.99,-126 191.99,-126 188.99,-122 130.01,-122 130.01,-86 215.99,-86 215.99,-122"/>
<text text-anchor="middle" x="173" y="-99.8" font-family="Times,serif" font-size="14.00">ChatModule</text>
</g>
<!-- ChatModule&#45;&gt;CoreModule -->
<g id="edge4" class="edge">
<title>ChatModule&#45;&gt;CoreModule</title>
<path fill="none" stroke="black" d="M173,-122.02C173,-139.37 173,-163 173,-163 173,-163 251.41,-163 251.41,-163"/>
<polygon fill="black" stroke="black" points="251.41,-166.5 261.41,-163 251.41,-159.5 251.41,-166.5"/>
</g>
<!-- ShopModule -->
<g id="node6" class="node">
<title>ShopModule</title>
<polygon fill="#8dd3c7" stroke="black" points="112.33,-122 109.33,-126 88.33,-126 85.33,-122 23.67,-122 23.67,-86 112.33,-86 112.33,-122"/>
<text text-anchor="middle" x="68" y="-99.8" font-family="Times,serif" font-size="14.00">ShopModule</text>
</g>
<!-- ShopModule&#45;&gt;CoreModule -->
<g id="edge5" class="edge">
<title>ShopModule&#45;&gt;CoreModule</title>
<path fill="none" stroke="black" d="M68,-122.28C68,-143.32 68,-175 68,-175 68,-175 251.53,-175 251.53,-175"/>
<polygon fill="black" stroke="black" points="251.53,-178.5 261.53,-175 251.53,-171.5 251.53,-178.5"/>
</g>
</g>
</svg>
