<?xml version="1.0" encoding="UTF-8" standalone="no"?>
<!DOCTYPE svg PUBLIC "-//W3C//DTD SVG 1.1//EN"
 "http://www.w3.org/Graphics/SVG/1.1/DTD/svg11.dtd">
<!-- Generated by graphviz version 2.47.0 (20210316.0004)
 -->
<!-- Title: dependencies Pages: 1 -->
<svg width="2073pt" height="211pt"
 viewBox="0.00 0.00 2073.00 211.00" xmlns="http://www.w3.org/2000/svg" xmlns:xlink="http://www.w3.org/1999/xlink">
<g id="graph0" class="graph" transform="scale(1 1) rotate(0) translate(4 207)">
<title>dependencies</title>
<polygon fill="white" stroke="transparent" points="-4,4 -4,-207 2069,-207 2069,4 -4,4"/>
<text text-anchor="start" x="1011.51" y="-42.4" font-family="Times-12" font-weight="bold" font-size="14.00">Legend</text>
<polygon fill="#ffffb3" stroke="transparent" points="798.5,-10 798.5,-30 818.5,-30 818.5,-10 798.5,-10"/>
<text text-anchor="start" x="822.13" y="-15.4" font-family="Times-12" font-size="14.00"> &#160;Declarations</text>
<polygon fill="#8dd3c7" stroke="transparent" points="911.5,-10 911.5,-30 931.5,-30 931.5,-10 911.5,-10"/>
<text text-anchor="start" x="935.23" y="-15.4" font-family="Times-12" font-size="14.00"> &#160;Module</text>
<polygon fill="#80b1d3" stroke="transparent" points="997.5,-10 997.5,-30 1017.5,-30 1017.5,-10 997.5,-10"/>
<text text-anchor="start" x="1021.28" y="-15.4" font-family="Times-12" font-size="14.00"> &#160;Bootstrap</text>
<polygon fill="#fdb462" stroke="transparent" points="1094.5,-10 1094.5,-30 1114.5,-30 1114.5,-10 1094.5,-10"/>
<text text-anchor="start" x="1118.17" y="-15.4" font-family="Times-12" font-size="14.00"> &#160;Providers</text>
<polygon fill="#fb8072" stroke="transparent" points="1190.5,-10 1190.5,-30 1210.5,-30 1210.5,-10 1190.5,-10"/>
<text text-anchor="start" x="1214.23" y="-15.4" font-family="Times-12" font-size="14.00"> &#160;Exports</text>
<g id="clust1" class="cluster">
<title>cluster_AdminModule</title>
<polygon fill="none" stroke="black" stroke-dasharray="1,5" points="8,-70 8,-195 2057,-195 2057,-70 8,-70"/>
</g>
<g id="clust2" class="cluster">
<title>cluster_AdminModule_declarations</title>
<polygon fill="none" stroke="black" points="632,-78 632,-130 2049,-130 2049,-78 632,-78"/>
</g>
<g id="clust10" class="cluster">
<title>cluster_AdminModule_imports</title>
<polygon fill="none" stroke="black" points="16,-78 16,-130 624,-130 624,-78 16,-78"/>
</g>
<!-- AdminClientDetailsComponent -->
<g id="node1" class="node">
<title>AdminClientDetailsComponent</title>
<polygon fill="#ffffb3" stroke="black" points="2041.1,-122 1846.9,-122 1846.9,-86 2041.1,-86 2041.1,-122"/>
<text text-anchor="middle" x="1944" y="-99.8" font-family="Times,serif" font-size="14.00">AdminClientDetailsComponent</text>
</g>
<!-- AdminModule -->
<g id="node8" class="node">
<title>AdminModule</title>
<polygon fill="#8dd3c7" stroke="black" points="972.44,-187 969.44,-191 948.44,-191 945.44,-187 873.56,-187 873.56,-151 972.44,-151 972.44,-187"/>
<text text-anchor="middle" x="923" y="-164.8" font-family="Times,serif" font-size="14.00">AdminModule</text>
</g>
<!-- AdminClientDetailsComponent&#45;&gt;AdminModule -->
<g id="edge1" class="edge">
<title>AdminClientDetailsComponent&#45;&gt;AdminModule</title>
<path fill="none" stroke="black" d="M1944,-122.09C1944,-145.13 1944,-182 1944,-182 1944,-182 982.24,-182 982.24,-182"/>
<polygon fill="black" stroke="black" points="982.24,-178.5 972.24,-182 982.24,-185.5 982.24,-178.5"/>
</g>
<!-- AdminRegisterUserDialogComponent -->
<g id="node2" class="node">
<title>AdminRegisterUserDialogComponent</title>
<polygon fill="#ffffb3" stroke="black" points="1828.9,-122 1597.1,-122 1597.1,-86 1828.9,-86 1828.9,-122"/>
<text text-anchor="middle" x="1713" y="-99.8" font-family="Times,serif" font-size="14.00">AdminRegisterUserDialogComponent</text>
</g>
<!-- AdminRegisterUserDialogComponent&#45;&gt;AdminModule -->
<g id="edge2" class="edge">
<title>AdminRegisterUserDialogComponent&#45;&gt;AdminModule</title>
<path fill="none" stroke="black" d="M1713,-122.28C1713,-143.32 1713,-175 1713,-175 1713,-175 982.42,-175 982.42,-175"/>
<polygon fill="black" stroke="black" points="982.42,-171.5 972.42,-175 982.42,-178.5 982.42,-171.5"/>
</g>
<!-- AdminTableComponent -->
<g id="node3" class="node">
<title>AdminTableComponent</title>
<polygon fill="#ffffb3" stroke="black" points="1579.09,-122 1426.91,-122 1426.91,-86 1579.09,-86 1579.09,-122"/>
<text text-anchor="middle" x="1503" y="-99.8" font-family="Times,serif" font-size="14.00">AdminTableComponent</text>
</g>
<!-- AdminTableComponent&#45;&gt;AdminModule -->
<g id="edge3" class="edge">
<title>AdminTableComponent&#45;&gt;AdminModule</title>
<path fill="none" stroke="black" d="M1503,-122.11C1503,-141.34 1503,-169 1503,-169 1503,-169 982.45,-169 982.45,-169"/>
<polygon fill="black" stroke="black" points="982.45,-165.5 972.45,-169 982.45,-172.5 982.45,-165.5"/>
</g>
<!-- AdminUserDetailsComponent -->
<g id="node4" class="node">
<title>AdminUserDetailsComponent</title>
<polygon fill="#ffffb3" stroke="black" points="1409.3,-122 1222.7,-122 1222.7,-86 1409.3,-86 1409.3,-122"/>
<text text-anchor="middle" x="1316" y="-99.8" font-family="Times,serif" font-size="14.00">AdminUserDetailsComponent</text>
</g>
<!-- AdminUserDetailsComponent&#45;&gt;AdminModule -->
<g id="edge4" class="edge">
<title>AdminUserDetailsComponent&#45;&gt;AdminModule</title>
<path fill="none" stroke="black" d="M1316,-122.02C1316,-139.37 1316,-163 1316,-163 1316,-163 982.38,-163 982.38,-163"/>
<polygon fill="black" stroke="black" points="982.38,-159.5 972.38,-163 982.38,-166.5 982.38,-159.5"/>
</g>
<!-- AdminUserFilterComponent -->
<g id="node5" class="node">
<title>AdminUserFilterComponent</title>
<polygon fill="#ffffb3" stroke="black" points="1204.48,-122 1027.52,-122 1027.52,-86 1204.48,-86 1204.48,-122"/>
<text text-anchor="middle" x="1116" y="-99.8" font-family="Times,serif" font-size="14.00">AdminUserFilterComponent</text>
</g>
<!-- AdminUserFilterComponent&#45;&gt;AdminModule -->
<g id="edge5" class="edge">
<title>AdminUserFilterComponent&#45;&gt;AdminModule</title>
<path fill="none" stroke="black" d="M1116,-122.24C1116,-137.57 1116,-157 1116,-157 1116,-157 982.45,-157 982.45,-157"/>
<polygon fill="black" stroke="black" points="982.45,-153.5 972.45,-157 982.45,-160.5 982.45,-153.5"/>
</g>
<!-- AdminUserPageComponent -->
<g id="node6" class="node">
<title>AdminUserPageComponent</title>
<polygon fill="#ffffb3" stroke="black" points="1009.86,-122 836.14,-122 836.14,-86 1009.86,-86 1009.86,-122"/>
<text text-anchor="middle" x="923" y="-99.8" font-family="Times,serif" font-size="14.00">AdminUserPageComponent</text>
</g>
<!-- AdminUserPageComponent&#45;&gt;AdminModule -->
<g id="edge6" class="edge">
<title>AdminUserPageComponent&#45;&gt;AdminModule</title>
<path fill="none" stroke="black" d="M923,-122.11C923,-122.11 923,-140.99 923,-140.99"/>
<polygon fill="black" stroke="black" points="919.5,-140.99 923,-150.99 926.5,-140.99 919.5,-140.99"/>
</g>
<!-- AdminUserTableComponent -->
<g id="node7" class="node">
<title>AdminUserTableComponent</title>
<polygon fill="#ffffb3" stroke="black" points="818.02,-122 639.98,-122 639.98,-86 818.02,-86 818.02,-122"/>
<text text-anchor="middle" x="729" y="-99.8" font-family="Times,serif" font-size="14.00">AdminUserTableComponent</text>
</g>
<!-- AdminUserTableComponent&#45;&gt;AdminModule -->
<g id="edge7" class="edge">
<title>AdminUserTableComponent&#45;&gt;AdminModule</title>
<path fill="none" stroke="black" d="M729,-122.24C729,-137.57 729,-157 729,-157 729,-157 863.54,-157 863.54,-157"/>
<polygon fill="black" stroke="black" points="863.54,-160.5 873.54,-157 863.54,-153.5 863.54,-160.5"/>
</g>
<!-- GenericTableComponent -->
<g id="node9" class="node">
<title>GenericTableComponent</title>
<polygon fill="#8dd3c7" stroke="black" points="615.51,-122 612.51,-126 591.51,-126 588.51,-122 458.49,-122 458.49,-86 615.51,-86 615.51,-122"/>
<text text-anchor="middle" x="537" y="-99.8" font-family="Times,serif" font-size="14.00">GenericTableComponent</text>
</g>
<!-- GenericTableComponent&#45;&gt;AdminModule -->
<g id="edge8" class="edge">
<title>GenericTableComponent&#45;&gt;AdminModule</title>
<path fill="none" stroke="black" d="M537,-122.02C537,-139.37 537,-163 537,-163 537,-163 863.72,-163 863.72,-163"/>
<polygon fill="black" stroke="black" points="863.72,-166.5 873.72,-163 863.72,-159.5 863.72,-166.5"/>
</g>
<!-- LoadingComponent -->
<g id="node10" class="node">
<title>LoadingComponent</title>
<polygon fill="#8dd3c7" stroke="black" points="439.99,-122 436.99,-126 415.99,-126 412.99,-122 312.01,-122 312.01,-86 439.99,-86 439.99,-122"/>
<text text-anchor="middle" x="376" y="-99.8" font-family="Times,serif" font-size="14.00">LoadingComponent</text>
</g>
<!-- LoadingComponent&#45;&gt;AdminModule -->
<g id="edge9" class="edge">
<title>LoadingComponent&#45;&gt;AdminModule</title>
<path fill="none" stroke="black" d="M376,-122.11C376,-141.34 376,-169 376,-169 376,-169 863.49,-169 863.49,-169"/>
<polygon fill="black" stroke="black" points="863.49,-172.5 873.49,-169 863.49,-165.5 863.49,-172.5"/>
</g>
<!-- OrderTableComponent -->
<g id="node11" class="node">
<title>OrderTableComponent</title>
<polygon fill="#8dd3c7" stroke="black" points="293.85,-122 290.85,-126 269.85,-126 266.85,-122 148.15,-122 148.15,-86 293.85,-86 293.85,-122"/>
<text text-anchor="middle" x="221" y="-99.8" font-family="Times,serif" font-size="14.00">OrderTableComponent</text>
</g>
<!-- OrderTableComponent&#45;&gt;AdminModule -->
<g id="edge10" class="edge">
<title>OrderTableComponent&#45;&gt;AdminModule</title>
<path fill="none" stroke="black" d="M221,-122.28C221,-143.32 221,-175 221,-175 221,-175 863.64,-175 863.64,-175"/>
<polygon fill="black" stroke="black" points="863.64,-178.5 873.64,-175 863.64,-171.5 863.64,-178.5"/>
</g>
<!-- PlaceholderPipe -->
<g id="node12" class="node">
<title>PlaceholderPipe</title>
<polygon fill="#8dd3c7" stroke="black" points="130.47,-122 127.47,-126 106.47,-126 103.47,-122 23.53,-122 23.53,-86 130.47,-86 130.47,-122"/>
<text text-anchor="middle" x="77" y="-99.8" font-family="Times,serif" font-size="14.00">PlaceholderPipe</text>
</g>
<!-- PlaceholderPipe&#45;&gt;AdminModule -->
<g id="edge11" class="edge">
<title>PlaceholderPipe&#45;&gt;AdminModule</title>
<path fill="none" stroke="black" d="M77,-122.09C77,-145.13 77,-182 77,-182 77,-182 863.55,-182 863.55,-182"/>
<polygon fill="black" stroke="black" points="863.55,-185.5 873.55,-182 863.55,-178.5 863.55,-185.5"/>
</g>
</g>
</svg>
