<?xml version="1.0" encoding="UTF-8" standalone="no"?>
<!DOCTYPE svg PUBLIC "-//W3C//DTD SVG 1.1//EN"
 "http://www.w3.org/Graphics/SVG/1.1/DTD/svg11.dtd">
<!-- Generated by graphviz version 2.47.0 (20210316.0004)
 -->
<!-- Title: dependencies Pages: 1 -->
<svg width="2092pt" height="284pt"
 viewBox="0.00 0.00 2092.00 284.00" xmlns="http://www.w3.org/2000/svg" xmlns:xlink="http://www.w3.org/1999/xlink">
<g id="graph0" class="graph" transform="scale(1 1) rotate(0) translate(4 280)">
<title>dependencies</title>
<polygon fill="white" stroke="transparent" points="-4,4 -4,-280 2088,-280 2088,4 -4,4"/>
<text text-anchor="start" x="1021.01" y="-42.4" font-family="Times-12" font-weight="bold" font-size="14.00">Legend</text>
<polygon fill="#ffffb3" stroke="transparent" points="808,-10 808,-30 828,-30 828,-10 808,-10"/>
<text text-anchor="start" x="831.63" y="-15.4" font-family="Times-12" font-size="14.00"> &#160;Declarations</text>
<polygon fill="#8dd3c7" stroke="transparent" points="921,-10 921,-30 941,-30 941,-10 921,-10"/>
<text text-anchor="start" x="944.73" y="-15.4" font-family="Times-12" font-size="14.00"> &#160;Module</text>
<polygon fill="#80b1d3" stroke="transparent" points="1007,-10 1007,-30 1027,-30 1027,-10 1007,-10"/>
<text text-anchor="start" x="1030.78" y="-15.4" font-family="Times-12" font-size="14.00"> &#160;Bootstrap</text>
<polygon fill="#fdb462" stroke="transparent" points="1104,-10 1104,-30 1124,-30 1124,-10 1104,-10"/>
<text text-anchor="start" x="1127.67" y="-15.4" font-family="Times-12" font-size="14.00"> &#160;Providers</text>
<polygon fill="#fb8072" stroke="transparent" points="1200,-10 1200,-30 1220,-30 1220,-10 1200,-10"/>
<text text-anchor="start" x="1223.73" y="-15.4" font-family="Times-12" font-size="14.00"> &#160;Exports</text>
<g id="clust1" class="cluster">
<title>cluster_LibraryModule</title>
<polygon fill="none" stroke="black" stroke-dasharray="1,5" points="8,-70 8,-268 2076,-268 2076,-70 8,-70"/>
</g>
<g id="clust15" class="cluster">
<title>cluster_LibraryModule_exports</title>
<polygon fill="none" stroke="black" points="421,-208 421,-260 1752,-260 1752,-208 421,-208"/>
</g>
<g id="clust2" class="cluster">
<title>cluster_LibraryModule_declarations</title>
<polygon fill="none" stroke="black" points="16,-78 16,-130 2068,-130 2068,-78 16,-78"/>
</g>
<!-- AuthorChangeDialogComponent -->
<g id="node1" class="node">
<title>AuthorChangeDialogComponent</title>
<polygon fill="#ffffb3" stroke="black" points="2059.86,-122 1858.14,-122 1858.14,-86 2059.86,-86 2059.86,-122"/>
<text text-anchor="middle" x="1959" y="-99.8" font-family="Times,serif" font-size="14.00">AuthorChangeDialogComponent</text>
</g>
<!-- LibraryModule -->
<g id="node12" class="node">
<title>LibraryModule</title>
<polygon fill="#8dd3c7" stroke="black" points="1108.53,-187 1105.53,-191 1084.53,-191 1081.53,-187 1007.47,-187 1007.47,-151 1108.53,-151 1108.53,-187"/>
<text text-anchor="middle" x="1058" y="-164.8" font-family="Times,serif" font-size="14.00">LibraryModule</text>
</g>
<!-- AuthorChangeDialogComponent&#45;&gt;LibraryModule -->
<g id="edge1" class="edge">
<title>AuthorChangeDialogComponent&#45;&gt;LibraryModule</title>
<path fill="none" stroke="black" d="M1959,-122.31C1959,-142.15 1959,-171 1959,-171 1959,-171 1118.7,-171 1118.7,-171"/>
<polygon fill="black" stroke="black" points="1118.7,-167.5 1108.7,-171 1118.7,-174.5 1118.7,-167.5"/>
</g>
<!-- AuthorInputComponent -->
<g id="node2" class="node">
<title>AuthorInputComponent</title>
<polygon fill="#ffffb3" stroke="black" points="1840.04,-122 1689.96,-122 1689.96,-86 1840.04,-86 1840.04,-122"/>
<text text-anchor="middle" x="1765" y="-99.8" font-family="Times,serif" font-size="14.00">AuthorInputComponent</text>
</g>
<!-- AuthorInputComponent&#45;&gt;LibraryModule -->
<g id="edge2" class="edge">
<title>AuthorInputComponent&#45;&gt;LibraryModule</title>
<path fill="none" stroke="black" d="M1716.7,-122.22C1716.7,-140.83 1716.7,-167 1716.7,-167 1716.7,-167 1118.59,-167 1118.59,-167"/>
<polygon fill="black" stroke="black" points="1118.59,-163.5 1108.59,-167 1118.59,-170.5 1118.59,-163.5"/>
</g>
<!-- BookChangeDialogComponent -->
<g id="node3" class="node">
<title>BookChangeDialogComponent</title>
<polygon fill="#ffffb3" stroke="black" points="1671.04,-122 1478.96,-122 1478.96,-86 1671.04,-86 1671.04,-122"/>
<text text-anchor="middle" x="1575" y="-99.8" font-family="Times,serif" font-size="14.00">BookChangeDialogComponent</text>
</g>
<!-- BookChangeDialogComponent&#45;&gt;LibraryModule -->
<g id="edge3" class="edge">
<title>BookChangeDialogComponent&#45;&gt;LibraryModule</title>
<path fill="none" stroke="black" d="M1499.38,-122.02C1499.38,-139.37 1499.38,-163 1499.38,-163 1499.38,-163 1118.63,-163 1118.63,-163"/>
<polygon fill="black" stroke="black" points="1118.63,-159.5 1108.63,-163 1118.63,-166.5 1118.63,-159.5"/>
</g>
<!-- BookFallbackCoverPipe -->
<g id="node4" class="node">
<title>BookFallbackCoverPipe</title>
<polygon fill="#ffffb3" stroke="black" points="1460.64,-122 1307.36,-122 1307.36,-86 1460.64,-86 1460.64,-122"/>
<text text-anchor="middle" x="1384" y="-99.8" font-family="Times,serif" font-size="14.00">BookFallbackCoverPipe</text>
</g>
<!-- BookFallbackCoverPipe&#45;&gt;LibraryModule -->
<g id="edge4" class="edge">
<title>BookFallbackCoverPipe&#45;&gt;LibraryModule</title>
<path fill="none" stroke="black" d="M1315.58,-122.01C1315.58,-138.05 1315.58,-159 1315.58,-159 1315.58,-159 1118.58,-159 1118.58,-159"/>
<polygon fill="black" stroke="black" points="1118.58,-155.5 1108.58,-159 1118.58,-162.5 1118.58,-155.5"/>
</g>
<!-- BookFilterComponent -->
<g id="node5" class="node">
<title>BookFilterComponent</title>
<polygon fill="#ffffb3" stroke="black" points="1289,-122 1147,-122 1147,-86 1289,-86 1289,-122"/>
<text text-anchor="middle" x="1218" y="-99.8" font-family="Times,serif" font-size="14.00">BookFilterComponent</text>
</g>
<!-- BookFilterComponent&#45;&gt;LibraryModule -->
<g id="edge5" class="edge">
<title>BookFilterComponent&#45;&gt;LibraryModule</title>
<path fill="none" stroke="black" d="M1242.14,-122.12C1242.14,-136.78 1242.14,-155 1242.14,-155 1242.14,-155 1118.81,-155 1118.81,-155"/>
<polygon fill="black" stroke="black" points="1118.81,-151.5 1108.81,-155 1118.81,-158.5 1118.81,-151.5"/>
</g>
<!-- BookInputComponent -->
<g id="node6" class="node">
<title>BookInputComponent</title>
<polygon fill="#ffffb3" stroke="black" points="1128.72,-122 987.28,-122 987.28,-86 1128.72,-86 1128.72,-122"/>
<text text-anchor="middle" x="1058" y="-99.8" font-family="Times,serif" font-size="14.00">BookInputComponent</text>
</g>
<!-- BookInputComponent&#45;&gt;LibraryModule -->
<g id="edge6" class="edge">
<title>BookInputComponent&#45;&gt;LibraryModule</title>
<path fill="none" stroke="black" d="M1058,-122.11C1058,-122.11 1058,-140.99 1058,-140.99"/>
<polygon fill="black" stroke="black" points="1054.5,-140.99 1058,-150.99 1061.5,-140.99 1054.5,-140.99"/>
</g>
<!-- GenreChangeDialogComponent -->
<g id="node7" class="node">
<title>GenreChangeDialogComponent</title>
<polygon fill="#ffffb3" stroke="black" points="969.4,-122 772.6,-122 772.6,-86 969.4,-86 969.4,-122"/>
<text text-anchor="middle" x="871" y="-99.8" font-family="Times,serif" font-size="14.00">GenreChangeDialogComponent</text>
</g>
<!-- GenreChangeDialogComponent&#45;&gt;LibraryModule -->
<g id="edge7" class="edge">
<title>GenreChangeDialogComponent&#45;&gt;LibraryModule</title>
<path fill="none" stroke="black" d="M870.88,-122.12C870.88,-136.78 870.88,-155 870.88,-155 870.88,-155 997.36,-155 997.36,-155"/>
<polygon fill="black" stroke="black" points="997.36,-158.5 1007.36,-155 997.36,-151.5 997.36,-158.5"/>
</g>
<!-- GenreInputComponent -->
<g id="node8" class="node">
<title>GenreInputComponent</title>
<polygon fill="#ffffb3" stroke="black" points="754.58,-122 609.42,-122 609.42,-86 754.58,-86 754.58,-122"/>
<text text-anchor="middle" x="682" y="-99.8" font-family="Times,serif" font-size="14.00">GenreInputComponent</text>
</g>
<!-- GenreInputComponent&#45;&gt;LibraryModule -->
<g id="edge8" class="edge">
<title>GenreInputComponent&#45;&gt;LibraryModule</title>
<path fill="none" stroke="black" d="M682,-122.01C682,-138.05 682,-159 682,-159 682,-159 997.29,-159 997.29,-159"/>
<polygon fill="black" stroke="black" points="997.29,-162.5 1007.29,-159 997.29,-155.5 997.29,-162.5"/>
</g>
<!-- LibraryFilterComponent -->
<g id="node9" class="node">
<title>LibraryFilterComponent</title>
<polygon fill="#ffffb3" stroke="black" points="591.64,-122 438.36,-122 438.36,-86 591.64,-86 591.64,-122"/>
<text text-anchor="middle" x="515" y="-99.8" font-family="Times,serif" font-size="14.00">LibraryFilterComponent</text>
</g>
<!-- LibraryFilterComponent&#45;&gt;LibraryModule -->
<g id="edge9" class="edge">
<title>LibraryFilterComponent&#45;&gt;LibraryModule</title>
<path fill="none" stroke="black" d="M537.11,-122.02C537.11,-139.37 537.11,-163 537.11,-163 537.11,-163 997.11,-163 997.11,-163"/>
<polygon fill="black" stroke="black" points="997.11,-166.5 1007.11,-163 997.11,-159.5 997.11,-166.5"/>
</g>
<!-- PublisherChangeDialogComponent -->
<g id="node10" class="node">
<title>PublisherChangeDialogComponent</title>
<polygon fill="#ffffb3" stroke="black" points="420.58,-122 205.42,-122 205.42,-86 420.58,-86 420.58,-122"/>
<text text-anchor="middle" x="313" y="-99.8" font-family="Times,serif" font-size="14.00">PublisherChangeDialogComponent</text>
</g>
<!-- PublisherChangeDialogComponent&#45;&gt;LibraryModule -->
<g id="edge10" class="edge">
<title>PublisherChangeDialogComponent&#45;&gt;LibraryModule</title>
<path fill="none" stroke="black" d="M313,-122.22C313,-140.83 313,-167 313,-167 313,-167 997.38,-167 997.38,-167"/>
<polygon fill="black" stroke="black" points="997.38,-170.5 1007.38,-167 997.38,-163.5 997.38,-170.5"/>
</g>
<!-- PublisherInputComponent -->
<g id="node11" class="node">
<title>PublisherInputComponent</title>
<polygon fill="#ffffb3" stroke="black" points="187.77,-122 24.23,-122 24.23,-86 187.77,-86 187.77,-122"/>
<text text-anchor="middle" x="106" y="-99.8" font-family="Times,serif" font-size="14.00">PublisherInputComponent</text>
</g>
<!-- PublisherInputComponent&#45;&gt;LibraryModule -->
<g id="edge11" class="edge">
<title>PublisherInputComponent&#45;&gt;LibraryModule</title>
<path fill="none" stroke="black" d="M106,-122.31C106,-142.15 106,-171 106,-171 106,-171 997.15,-171 997.15,-171"/>
<polygon fill="black" stroke="black" points="997.15,-174.5 1007.15,-171 997.15,-167.5 997.15,-174.5"/>
</g>
<!-- AuthorChangeDialogComponent  -->
<g id="node13" class="node">
<title>AuthorChangeDialogComponent </title>
<polygon fill="#fb8072" stroke="black" points="1743.86,-252 1538.14,-252 1538.14,-216 1743.86,-216 1743.86,-252"/>
<text text-anchor="middle" x="1641" y="-229.8" font-family="Times,serif" font-size="14.00">AuthorChangeDialogComponent </text>
</g>
<!-- LibraryModule&#45;&gt;AuthorChangeDialogComponent  -->
<g id="edge12" class="edge">
<title>LibraryModule&#45;&gt;AuthorChangeDialogComponent </title>
<path fill="none" stroke="black" stroke-dasharray="5,2" d="M1108.95,-175C1244.69,-175 1604.79,-175 1604.79,-175 1604.79,-175 1604.79,-205.98 1604.79,-205.98"/>
<polygon fill="black" stroke="black" points="1601.29,-205.98 1604.79,-215.98 1608.29,-205.98 1601.29,-205.98"/>
</g>
<!-- BookChangeDialogComponent  -->
<g id="node14" class="node">
<title>BookChangeDialogComponent </title>
<polygon fill="#fb8072" stroke="black" points="1520.04,-252 1323.96,-252 1323.96,-216 1520.04,-216 1520.04,-252"/>
<text text-anchor="middle" x="1422" y="-229.8" font-family="Times,serif" font-size="14.00">BookChangeDialogComponent </text>
</g>
<!-- LibraryModule&#45;&gt;BookChangeDialogComponent  -->
<g id="edge13" class="edge">
<title>LibraryModule&#45;&gt;BookChangeDialogComponent </title>
<path fill="none" stroke="black" stroke-dasharray="5,2" d="M1108.79,-179C1202.34,-179 1392.4,-179 1392.4,-179 1392.4,-179 1392.4,-205.99 1392.4,-205.99"/>
<polygon fill="black" stroke="black" points="1388.9,-205.99 1392.4,-215.99 1395.9,-205.99 1388.9,-205.99"/>
</g>
<!-- BookFallbackCoverPipe  -->
<g id="node15" class="node">
<title>BookFallbackCoverPipe </title>
<polygon fill="#fb8072" stroke="black" points="1305.64,-252 1148.36,-252 1148.36,-216 1305.64,-216 1305.64,-252"/>
<text text-anchor="middle" x="1227" y="-229.8" font-family="Times,serif" font-size="14.00">BookFallbackCoverPipe </text>
</g>
<!-- LibraryModule&#45;&gt;BookFallbackCoverPipe  -->
<g id="edge14" class="edge">
<title>LibraryModule&#45;&gt;BookFallbackCoverPipe </title>
<path fill="none" stroke="black" stroke-dasharray="5,2" d="M1108.73,-183C1147.84,-183 1195.29,-183 1195.29,-183 1195.29,-183 1195.29,-205.88 1195.29,-205.88"/>
<polygon fill="black" stroke="black" points="1191.79,-205.88 1195.29,-215.88 1198.79,-205.88 1191.79,-205.88"/>
</g>
<!-- BookFilterComponent  -->
<g id="node16" class="node">
<title>BookFilterComponent </title>
<polygon fill="#fb8072" stroke="black" points="1131,-252 985,-252 985,-216 1131,-216 1131,-252"/>
<text text-anchor="middle" x="1058" y="-229.8" font-family="Times,serif" font-size="14.00">BookFilterComponent </text>
</g>
<!-- LibraryModule&#45;&gt;BookFilterComponent  -->
<g id="edge15" class="edge">
<title>LibraryModule&#45;&gt;BookFilterComponent </title>
<path fill="none" stroke="black" stroke-dasharray="5,2" d="M1058,-187.11C1058,-187.11 1058,-205.99 1058,-205.99"/>
<polygon fill="black" stroke="black" points="1054.5,-205.99 1058,-215.99 1061.5,-205.99 1054.5,-205.99"/>
</g>
<!-- BookInputComponent  -->
<g id="node17" class="node">
<title>BookInputComponent </title>
<polygon fill="#fb8072" stroke="black" points="967.22,-252 822.78,-252 822.78,-216 967.22,-216 967.22,-252"/>
<text text-anchor="middle" x="895" y="-229.8" font-family="Times,serif" font-size="14.00">BookInputComponent </text>
</g>
<!-- LibraryModule&#45;&gt;BookInputComponent  -->
<g id="edge16" class="edge">
<title>LibraryModule&#45;&gt;BookInputComponent </title>
<path fill="none" stroke="black" stroke-dasharray="5,2" d="M1007.47,-183C967.76,-183 919.12,-183 919.12,-183 919.12,-183 919.12,-205.88 919.12,-205.88"/>
<polygon fill="black" stroke="black" points="915.62,-205.88 919.12,-215.88 922.62,-205.88 915.62,-205.88"/>
</g>
<!-- GenreChangeDialogComponent  -->
<g id="node18" class="node">
<title>GenreChangeDialogComponent </title>
<polygon fill="#fb8072" stroke="black" points="804.9,-252 605.1,-252 605.1,-216 804.9,-216 804.9,-252"/>
<text text-anchor="middle" x="705" y="-229.8" font-family="Times,serif" font-size="14.00">GenreChangeDialogComponent </text>
</g>
<!-- LibraryModule&#45;&gt;GenreChangeDialogComponent  -->
<g id="edge17" class="edge">
<title>LibraryModule&#45;&gt;GenreChangeDialogComponent </title>
<path fill="none" stroke="black" stroke-dasharray="5,2" d="M1007.38,-179C929.42,-179 788.88,-179 788.88,-179 788.88,-179 788.88,-205.99 788.88,-205.99"/>
<polygon fill="black" stroke="black" points="785.38,-205.99 788.88,-215.99 792.38,-205.99 785.38,-205.99"/>
</g>
<!-- LibraryFilterComponent  -->
<g id="node19" class="node">
<title>LibraryFilterComponent </title>
<polygon fill="#fb8072" stroke="black" points="586.64,-252 429.36,-252 429.36,-216 586.64,-216 586.64,-252"/>
<text text-anchor="middle" x="508" y="-229.8" font-family="Times,serif" font-size="14.00">LibraryFilterComponent </text>
</g>
<!-- LibraryModule&#45;&gt;LibraryFilterComponent  -->
<g id="edge18" class="edge">
<title>LibraryModule&#45;&gt;LibraryFilterComponent </title>
<path fill="none" stroke="black" stroke-dasharray="5,2" d="M1007.38,-175C867.8,-175 487.64,-175 487.64,-175 487.64,-175 487.64,-205.98 487.64,-205.98"/>
<polygon fill="black" stroke="black" points="484.14,-205.98 487.64,-215.98 491.14,-205.98 484.14,-205.98"/>
</g>
</g>
</svg>
