<?xml version="1.0" encoding="UTF-8" standalone="no"?>
<!DOCTYPE svg PUBLIC "-//W3C//DTD SVG 1.1//EN"
 "http://www.w3.org/Graphics/SVG/1.1/DTD/svg11.dtd">
<!-- Generated by graphviz version 2.47.0 (20210316.0004)
 -->
<!-- Title: dependencies Pages: 1 -->
<svg width="1920pt" height="284pt"
 viewBox="0.00 0.00 1920.00 284.00" xmlns="http://www.w3.org/2000/svg" xmlns:xlink="http://www.w3.org/1999/xlink">
<g id="graph0" class="graph" transform="scale(1 1) rotate(0) translate(4 280)">
<title>dependencies</title>
<polygon fill="white" stroke="transparent" points="-4,4 -4,-280 1916,-280 1916,4 -4,4"/>
<text text-anchor="start" x="935.01" y="-42.4" font-family="Times-12" font-weight="bold" font-size="14.00">Legend</text>
<polygon fill="#ffffb3" stroke="transparent" points="722,-10 722,-30 742,-30 742,-10 722,-10"/>
<text text-anchor="start" x="745.63" y="-15.4" font-family="Times-12" font-size="14.00"> &#160;Declarations</text>
<polygon fill="#8dd3c7" stroke="transparent" points="835,-10 835,-30 855,-30 855,-10 835,-10"/>
<text text-anchor="start" x="858.73" y="-15.4" font-family="Times-12" font-size="14.00"> &#160;Module</text>
<polygon fill="#80b1d3" stroke="transparent" points="921,-10 921,-30 941,-30 941,-10 921,-10"/>
<text text-anchor="start" x="944.78" y="-15.4" font-family="Times-12" font-size="14.00"> &#160;Bootstrap</text>
<polygon fill="#fdb462" stroke="transparent" points="1018,-10 1018,-30 1038,-30 1038,-10 1018,-10"/>
<text text-anchor="start" x="1041.67" y="-15.4" font-family="Times-12" font-size="14.00"> &#160;Providers</text>
<polygon fill="#fb8072" stroke="transparent" points="1114,-10 1114,-30 1134,-30 1134,-10 1114,-10"/>
<text text-anchor="start" x="1137.73" y="-15.4" font-family="Times-12" font-size="14.00"> &#160;Exports</text>
<g id="clust1" class="cluster">
<title>cluster_LibraryModule</title>
<polygon fill="none" stroke="black" stroke-dasharray="1,5" points="8,-70 8,-268 1904,-268 1904,-70 8,-70"/>
</g>
<g id="clust14" class="cluster">
<title>cluster_LibraryModule_exports</title>
<polygon fill="none" stroke="black" points="409,-208 409,-260 1565,-260 1565,-208 409,-208"/>
</g>
<g id="clust2" class="cluster">
<title>cluster_LibraryModule_declarations</title>
<polygon fill="none" stroke="black" points="16,-78 16,-130 1896,-130 1896,-78 16,-78"/>
</g>
<!-- AuthorChangeDialogComponent -->
<g id="node1" class="node">
<title>AuthorChangeDialogComponent</title>
<polygon fill="#ffffb3" stroke="black" points="1887.86,-122 1686.14,-122 1686.14,-86 1887.86,-86 1887.86,-122"/>
<text text-anchor="middle" x="1787" y="-99.8" font-family="Times,serif" font-size="14.00">AuthorChangeDialogComponent</text>
</g>
<!-- LibraryModule -->
<g id="node11" class="node">
<title>LibraryModule</title>
<polygon fill="#8dd3c7" stroke="black" points="1014.53,-187 1011.53,-191 990.53,-191 987.53,-187 913.47,-187 913.47,-151 1014.53,-151 1014.53,-187"/>
<text text-anchor="middle" x="964" y="-164.8" font-family="Times,serif" font-size="14.00">LibraryModule</text>
</g>
<!-- AuthorChangeDialogComponent&#45;&gt;LibraryModule -->
<g id="edge1" class="edge">
<title>AuthorChangeDialogComponent&#45;&gt;LibraryModule</title>
<path fill="none" stroke="black" d="M1787,-122.22C1787,-142.37 1787,-172 1787,-172 1787,-172 1024.55,-172 1024.55,-172"/>
<polygon fill="black" stroke="black" points="1024.55,-168.5 1014.55,-172 1024.55,-175.5 1024.55,-168.5"/>
</g>
<!-- AuthorInputComponent -->
<g id="node2" class="node">
<title>AuthorInputComponent</title>
<polygon fill="#ffffb3" stroke="black" points="1668.04,-122 1517.96,-122 1517.96,-86 1668.04,-86 1668.04,-122"/>
<text text-anchor="middle" x="1593" y="-99.8" font-family="Times,serif" font-size="14.00">AuthorInputComponent</text>
</g>
<!-- AuthorInputComponent&#45;&gt;LibraryModule -->
<g id="edge2" class="edge">
<title>AuthorInputComponent&#45;&gt;LibraryModule</title>
<path fill="none" stroke="black" d="M1537.2,-122.22C1537.2,-140.83 1537.2,-167 1537.2,-167 1537.2,-167 1024.62,-167 1024.62,-167"/>
<polygon fill="black" stroke="black" points="1024.62,-163.5 1014.62,-167 1024.62,-170.5 1024.62,-163.5"/>
</g>
<!-- BookChangeDialogComponent -->
<g id="node3" class="node">
<title>BookChangeDialogComponent</title>
<polygon fill="#ffffb3" stroke="black" points="1499.04,-122 1306.96,-122 1306.96,-86 1499.04,-86 1499.04,-122"/>
<text text-anchor="middle" x="1403" y="-99.8" font-family="Times,serif" font-size="14.00">BookChangeDialogComponent</text>
</g>
<!-- BookChangeDialogComponent&#45;&gt;LibraryModule -->
<g id="edge3" class="edge">
<title>BookChangeDialogComponent&#45;&gt;LibraryModule</title>
<path fill="none" stroke="black" d="M1319.88,-122.03C1319.88,-139.06 1319.88,-162 1319.88,-162 1319.88,-162 1024.61,-162 1024.61,-162"/>
<polygon fill="black" stroke="black" points="1024.61,-158.5 1014.61,-162 1024.61,-165.5 1024.61,-158.5"/>
</g>
<!-- BookFilterComponent -->
<g id="node4" class="node">
<title>BookFilterComponent</title>
<polygon fill="#ffffb3" stroke="black" points="1289,-122 1147,-122 1147,-86 1289,-86 1289,-122"/>
<text text-anchor="middle" x="1218" y="-99.8" font-family="Times,serif" font-size="14.00">BookFilterComponent</text>
</g>
<!-- BookFilterComponent&#45;&gt;LibraryModule -->
<g id="edge4" class="edge">
<title>BookFilterComponent&#45;&gt;LibraryModule</title>
<path fill="none" stroke="black" d="M1218,-122.24C1218,-137.57 1218,-157 1218,-157 1218,-157 1024.79,-157 1024.79,-157"/>
<polygon fill="black" stroke="black" points="1024.79,-153.5 1014.79,-157 1024.79,-160.5 1024.79,-153.5"/>
</g>
<!-- BookInputComponent -->
<g id="node5" class="node">
<title>BookInputComponent</title>
<polygon fill="#ffffb3" stroke="black" points="1128.72,-122 987.28,-122 987.28,-86 1128.72,-86 1128.72,-122"/>
<text text-anchor="middle" x="1058" y="-99.8" font-family="Times,serif" font-size="14.00">BookInputComponent</text>
</g>
<!-- BookInputComponent&#45;&gt;LibraryModule -->
<g id="edge5" class="edge">
<title>BookInputComponent&#45;&gt;LibraryModule</title>
<path fill="none" stroke="black" d="M1001.08,-122.11C1001.08,-122.11 1001.08,-140.99 1001.08,-140.99"/>
<polygon fill="black" stroke="black" points="997.58,-140.99 1001.08,-150.99 1004.58,-140.99 997.58,-140.99"/>
</g>
<!-- GenreChangeDialogComponent -->
<g id="node6" class="node">
<title>GenreChangeDialogComponent</title>
<polygon fill="#ffffb3" stroke="black" points="969.4,-122 772.6,-122 772.6,-86 969.4,-86 969.4,-122"/>
<text text-anchor="middle" x="871" y="-99.8" font-family="Times,serif" font-size="14.00">GenreChangeDialogComponent</text>
</g>
<!-- GenreChangeDialogComponent&#45;&gt;LibraryModule -->
<g id="edge6" class="edge">
<title>GenreChangeDialogComponent&#45;&gt;LibraryModule</title>
<path fill="none" stroke="black" d="M941.22,-122.11C941.22,-122.11 941.22,-140.99 941.22,-140.99"/>
<polygon fill="black" stroke="black" points="937.72,-140.99 941.22,-150.99 944.72,-140.99 937.72,-140.99"/>
</g>
<!-- GenreInputComponent -->
<g id="node7" class="node">
<title>GenreInputComponent</title>
<polygon fill="#ffffb3" stroke="black" points="754.58,-122 609.42,-122 609.42,-86 754.58,-86 754.58,-122"/>
<text text-anchor="middle" x="682" y="-99.8" font-family="Times,serif" font-size="14.00">GenreInputComponent</text>
</g>
<!-- GenreInputComponent&#45;&gt;LibraryModule -->
<g id="edge7" class="edge">
<title>GenreInputComponent&#45;&gt;LibraryModule</title>
<path fill="none" stroke="black" d="M682,-122.24C682,-137.57 682,-157 682,-157 682,-157 903.26,-157 903.26,-157"/>
<polygon fill="black" stroke="black" points="903.26,-160.5 913.26,-157 903.26,-153.5 903.26,-160.5"/>
</g>
<!-- LibraryFilterComponent -->
<g id="node8" class="node">
<title>LibraryFilterComponent</title>
<polygon fill="#ffffb3" stroke="black" points="591.64,-122 438.36,-122 438.36,-86 591.64,-86 591.64,-122"/>
<text text-anchor="middle" x="515" y="-99.8" font-family="Times,serif" font-size="14.00">LibraryFilterComponent</text>
</g>
<!-- LibraryFilterComponent&#45;&gt;LibraryModule -->
<g id="edge8" class="edge">
<title>LibraryFilterComponent&#45;&gt;LibraryModule</title>
<path fill="none" stroke="black" d="M583.2,-122.03C583.2,-139.06 583.2,-162 583.2,-162 583.2,-162 903.43,-162 903.43,-162"/>
<polygon fill="black" stroke="black" points="903.43,-165.5 913.43,-162 903.43,-158.5 903.43,-165.5"/>
</g>
<!-- PublisherChangeDialogComponent -->
<g id="node9" class="node">
<title>PublisherChangeDialogComponent</title>
<polygon fill="#ffffb3" stroke="black" points="420.58,-122 205.42,-122 205.42,-86 420.58,-86 420.58,-122"/>
<text text-anchor="middle" x="313" y="-99.8" font-family="Times,serif" font-size="14.00">PublisherChangeDialogComponent</text>
</g>
<!-- PublisherChangeDialogComponent&#45;&gt;LibraryModule -->
<g id="edge9" class="edge">
<title>PublisherChangeDialogComponent&#45;&gt;LibraryModule</title>
<path fill="none" stroke="black" d="M311.44,-122.22C311.44,-140.83 311.44,-167 311.44,-167 311.44,-167 903.34,-167 903.34,-167"/>
<polygon fill="black" stroke="black" points="903.34,-170.5 913.34,-167 903.34,-163.5 903.34,-170.5"/>
</g>
<!-- PublisherInputComponent -->
<g id="node10" class="node">
<title>PublisherInputComponent</title>
<polygon fill="#ffffb3" stroke="black" points="187.77,-122 24.23,-122 24.23,-86 187.77,-86 187.77,-122"/>
<text text-anchor="middle" x="106" y="-99.8" font-family="Times,serif" font-size="14.00">PublisherInputComponent</text>
</g>
<!-- PublisherInputComponent&#45;&gt;LibraryModule -->
<g id="edge10" class="edge">
<title>PublisherInputComponent&#45;&gt;LibraryModule</title>
<path fill="none" stroke="black" d="M106,-122.22C106,-142.37 106,-172 106,-172 106,-172 903.21,-172 903.21,-172"/>
<polygon fill="black" stroke="black" points="903.22,-175.5 913.21,-172 903.21,-168.5 903.22,-175.5"/>
</g>
<!-- AuthorChangeDialogComponent  -->
<g id="node12" class="node">
<title>AuthorChangeDialogComponent </title>
<polygon fill="#fb8072" stroke="black" points="1556.86,-252 1351.14,-252 1351.14,-216 1556.86,-216 1556.86,-252"/>
<text text-anchor="middle" x="1454" y="-229.8" font-family="Times,serif" font-size="14.00">AuthorChangeDialogComponent </text>
</g>
<!-- LibraryModule&#45;&gt;AuthorChangeDialogComponent  -->
<g id="edge11" class="edge">
<title>LibraryModule&#45;&gt;AuthorChangeDialogComponent </title>
<path fill="none" stroke="black" stroke-dasharray="5,2" d="M1014.69,-177C1134.52,-177 1425.29,-177 1425.29,-177 1425.29,-177 1425.29,-205.96 1425.29,-205.96"/>
<polygon fill="black" stroke="black" points="1421.79,-205.96 1425.29,-215.96 1428.79,-205.96 1421.79,-205.96"/>
</g>
<!-- BookChangeDialogComponent  -->
<g id="node13" class="node">
<title>BookChangeDialogComponent </title>
<polygon fill="#fb8072" stroke="black" points="1333.04,-252 1136.96,-252 1136.96,-216 1333.04,-216 1333.04,-252"/>
<text text-anchor="middle" x="1235" y="-229.8" font-family="Times,serif" font-size="14.00">BookChangeDialogComponent </text>
</g>
<!-- LibraryModule&#45;&gt;BookChangeDialogComponent  -->
<g id="edge12" class="edge">
<title>LibraryModule&#45;&gt;BookChangeDialogComponent </title>
<path fill="none" stroke="black" stroke-dasharray="5,2" d="M1015.01,-182C1067.6,-182 1141.99,-182 1141.99,-182 1141.99,-182 1141.99,-205.81 1141.99,-205.81"/>
<polygon fill="black" stroke="black" points="1138.49,-205.81 1141.99,-215.81 1145.49,-205.81 1138.49,-205.81"/>
</g>
<!-- BookFilterComponent  -->
<g id="node14" class="node">
<title>BookFilterComponent </title>
<polygon fill="#fb8072" stroke="black" points="1119,-252 973,-252 973,-216 1119,-216 1119,-252"/>
<text text-anchor="middle" x="1046" y="-229.8" font-family="Times,serif" font-size="14.00">BookFilterComponent </text>
</g>
<!-- LibraryModule&#45;&gt;BookFilterComponent  -->
<g id="edge13" class="edge">
<title>LibraryModule&#45;&gt;BookFilterComponent </title>
<path fill="none" stroke="black" stroke-dasharray="5,2" d="M994.01,-187.11C994.01,-187.11 994.01,-205.99 994.01,-205.99"/>
<polygon fill="black" stroke="black" points="990.51,-205.99 994.01,-215.99 997.51,-205.99 990.51,-205.99"/>
</g>
<!-- BookInputComponent  -->
<g id="node15" class="node">
<title>BookInputComponent </title>
<polygon fill="#fb8072" stroke="black" points="955.22,-252 810.78,-252 810.78,-216 955.22,-216 955.22,-252"/>
<text text-anchor="middle" x="883" y="-229.8" font-family="Times,serif" font-size="14.00">BookInputComponent </text>
</g>
<!-- LibraryModule&#45;&gt;BookInputComponent  -->
<g id="edge14" class="edge">
<title>LibraryModule&#45;&gt;BookInputComponent </title>
<path fill="none" stroke="black" stroke-dasharray="5,2" d="M934.3,-187.11C934.3,-187.11 934.3,-205.99 934.3,-205.99"/>
<polygon fill="black" stroke="black" points="930.8,-205.99 934.3,-215.99 937.8,-205.99 930.8,-205.99"/>
</g>
<!-- GenreChangeDialogComponent  -->
<g id="node16" class="node">
<title>GenreChangeDialogComponent </title>
<polygon fill="#fb8072" stroke="black" points="792.9,-252 593.1,-252 593.1,-216 792.9,-216 792.9,-252"/>
<text text-anchor="middle" x="693" y="-229.8" font-family="Times,serif" font-size="14.00">GenreChangeDialogComponent </text>
</g>
<!-- LibraryModule&#45;&gt;GenreChangeDialogComponent  -->
<g id="edge15" class="edge">
<title>LibraryModule&#45;&gt;GenreChangeDialogComponent </title>
<path fill="none" stroke="black" stroke-dasharray="5,2" d="M913.06,-182C859.49,-182 782.88,-182 782.88,-182 782.88,-182 782.88,-205.81 782.88,-205.81"/>
<polygon fill="black" stroke="black" points="779.38,-205.81 782.88,-215.81 786.38,-205.81 779.38,-205.81"/>
</g>
<!-- LibraryFilterComponent  -->
<g id="node17" class="node">
<title>LibraryFilterComponent </title>
<polygon fill="#fb8072" stroke="black" points="574.64,-252 417.36,-252 417.36,-216 574.64,-216 574.64,-252"/>
<text text-anchor="middle" x="496" y="-229.8" font-family="Times,serif" font-size="14.00">LibraryFilterComponent </text>
</g>
<!-- LibraryModule&#45;&gt;LibraryFilterComponent  -->
<g id="edge16" class="edge">
<title>LibraryModule&#45;&gt;LibraryFilterComponent </title>
<path fill="none" stroke="black" stroke-dasharray="5,2" d="M913.28,-177C794.13,-177 506.38,-177 506.38,-177 506.38,-177 506.38,-205.96 506.38,-205.96"/>
<polygon fill="black" stroke="black" points="502.88,-205.96 506.38,-215.96 509.88,-205.96 502.88,-205.96"/>
</g>
</g>
</svg>
