<?xml version="1.0" encoding="UTF-8" standalone="no"?>
<!DOCTYPE svg PUBLIC "-//W3C//DTD SVG 1.1//EN"
 "http://www.w3.org/Graphics/SVG/1.1/DTD/svg11.dtd">
<!-- Generated by graphviz version 2.47.0 (20210316.0004)
 -->
<!-- Title: dependencies Pages: 1 -->
<svg width="1660pt" height="211pt"
 viewBox="0.00 0.00 1660.00 211.00" xmlns="http://www.w3.org/2000/svg" xmlns:xlink="http://www.w3.org/1999/xlink">
<g id="graph0" class="graph" transform="scale(1 1) rotate(0) translate(4 207)">
<title>dependencies</title>
<polygon fill="white" stroke="transparent" points="-4,4 -4,-207 1656,-207 1656,4 -4,4"/>
<text text-anchor="start" x="805.01" y="-42.4" font-family="Times-12" font-weight="bold" font-size="14.00">Legend</text>
<polygon fill="#ffffb3" stroke="transparent" points="592,-10 592,-30 612,-30 612,-10 592,-10"/>
<text text-anchor="start" x="615.63" y="-15.4" font-family="Times-12" font-size="14.00"> &#160;Declarations</text>
<polygon fill="#8dd3c7" stroke="transparent" points="705,-10 705,-30 725,-30 725,-10 705,-10"/>
<text text-anchor="start" x="728.73" y="-15.4" font-family="Times-12" font-size="14.00"> &#160;Module</text>
<polygon fill="#80b1d3" stroke="transparent" points="791,-10 791,-30 811,-30 811,-10 791,-10"/>
<text text-anchor="start" x="814.78" y="-15.4" font-family="Times-12" font-size="14.00"> &#160;Bootstrap</text>
<polygon fill="#fdb462" stroke="transparent" points="888,-10 888,-30 908,-30 908,-10 888,-10"/>
<text text-anchor="start" x="911.67" y="-15.4" font-family="Times-12" font-size="14.00"> &#160;Providers</text>
<polygon fill="#fb8072" stroke="transparent" points="984,-10 984,-30 1004,-30 1004,-10 984,-10"/>
<text text-anchor="start" x="1007.73" y="-15.4" font-family="Times-12" font-size="14.00"> &#160;Exports</text>
<g id="clust1" class="cluster">
<title>cluster_ClientModule</title>
<polygon fill="none" stroke="black" stroke-dasharray="1,5" points="8,-70 8,-195 1644,-195 1644,-70 8,-70"/>
</g>
<g id="clust2" class="cluster">
<title>cluster_ClientModule_declarations</title>
<polygon fill="none" stroke="black" points="630,-78 630,-130 1636,-130 1636,-78 630,-78"/>
</g>
<g id="clust9" class="cluster">
<title>cluster_ClientModule_imports</title>
<polygon fill="none" stroke="black" points="16,-78 16,-130 622,-130 622,-78 16,-78"/>
</g>
<!-- ClientViewComponent -->
<g id="node1" class="node">
<title>ClientViewComponent</title>
<polygon fill="#ffffb3" stroke="black" points="1627.87,-122 1482.13,-122 1482.13,-86 1627.87,-86 1627.87,-122"/>
<text text-anchor="middle" x="1555" y="-99.8" font-family="Times,serif" font-size="14.00">ClientViewComponent</text>
</g>
<!-- ClientModule -->
<g id="node7" class="node">
<title>ClientModule</title>
<polygon fill="#8dd3c7" stroke="black" points="760.77,-187 757.77,-191 736.77,-191 733.77,-187 667.23,-187 667.23,-151 760.77,-151 760.77,-187"/>
<text text-anchor="middle" x="714" y="-164.8" font-family="Times,serif" font-size="14.00">ClientModule</text>
</g>
<!-- ClientViewComponent&#45;&gt;ClientModule -->
<g id="edge1" class="edge">
<title>ClientViewComponent&#45;&gt;ClientModule</title>
<path fill="none" stroke="black" d="M1555,-122.09C1555,-145.13 1555,-182 1555,-182 1555,-182 771.02,-182 771.02,-182"/>
<polygon fill="black" stroke="black" points="771.02,-178.5 761.02,-182 771.02,-185.5 771.02,-178.5"/>
</g>
<!-- CreateClientComponent -->
<g id="node2" class="node">
<title>CreateClientComponent</title>
<polygon fill="#ffffb3" stroke="black" points="1464.09,-122 1311.91,-122 1311.91,-86 1464.09,-86 1464.09,-122"/>
<text text-anchor="middle" x="1388" y="-99.8" font-family="Times,serif" font-size="14.00">CreateClientComponent</text>
</g>
<!-- CreateClientComponent&#45;&gt;ClientModule -->
<g id="edge2" class="edge">
<title>CreateClientComponent&#45;&gt;ClientModule</title>
<path fill="none" stroke="black" d="M1388,-122.28C1388,-143.32 1388,-175 1388,-175 1388,-175 770.86,-175 770.86,-175"/>
<polygon fill="black" stroke="black" points="770.86,-171.5 760.86,-175 770.86,-178.5 770.86,-171.5"/>
</g>
<!-- MakeOrderComponent -->
<g id="node3" class="node">
<title>MakeOrderComponent</title>
<polygon fill="#ffffb3" stroke="black" points="1293.85,-122 1148.15,-122 1148.15,-86 1293.85,-86 1293.85,-122"/>
<text text-anchor="middle" x="1221" y="-99.8" font-family="Times,serif" font-size="14.00">MakeOrderComponent</text>
</g>
<!-- MakeOrderComponent&#45;&gt;ClientModule -->
<g id="edge3" class="edge">
<title>MakeOrderComponent&#45;&gt;ClientModule</title>
<path fill="none" stroke="black" d="M1221,-122.11C1221,-141.34 1221,-169 1221,-169 1221,-169 770.79,-169 770.79,-169"/>
<polygon fill="black" stroke="black" points="770.79,-165.5 760.79,-169 770.79,-172.5 770.79,-165.5"/>
</g>
<!-- OrderHistoryComponent -->
<g id="node4" class="node">
<title>OrderHistoryComponent</title>
<polygon fill="#ffffb3" stroke="black" points="1129.97,-122 974.03,-122 974.03,-86 1129.97,-86 1129.97,-122"/>
<text text-anchor="middle" x="1052" y="-99.8" font-family="Times,serif" font-size="14.00">OrderHistoryComponent</text>
</g>
<!-- OrderHistoryComponent&#45;&gt;ClientModule -->
<g id="edge4" class="edge">
<title>OrderHistoryComponent&#45;&gt;ClientModule</title>
<path fill="none" stroke="black" d="M1052,-122.02C1052,-139.37 1052,-163 1052,-163 1052,-163 771,-163 771,-163"/>
<polygon fill="black" stroke="black" points="771,-159.5 761,-163 771,-166.5 771,-159.5"/>
</g>
<!-- ProductInfoComponent -->
<g id="node5" class="node">
<title>ProductInfoComponent</title>
<polygon fill="#ffffb3" stroke="black" points="956.2,-122 807.8,-122 807.8,-86 956.2,-86 956.2,-122"/>
<text text-anchor="middle" x="882" y="-99.8" font-family="Times,serif" font-size="14.00">ProductInfoComponent</text>
</g>
<!-- ProductInfoComponent&#45;&gt;ClientModule -->
<g id="edge5" class="edge">
<title>ProductInfoComponent&#45;&gt;ClientModule</title>
<path fill="none" stroke="black" d="M882,-122.24C882,-137.57 882,-157 882,-157 882,-157 770.8,-157 770.8,-157"/>
<polygon fill="black" stroke="black" points="770.8,-153.5 760.8,-157 770.8,-160.5 770.8,-153.5"/>
</g>
<!-- ProductPageComponent -->
<g id="node6" class="node">
<title>ProductPageComponent</title>
<polygon fill="#ffffb3" stroke="black" points="790.09,-122 637.91,-122 637.91,-86 790.09,-86 790.09,-122"/>
<text text-anchor="middle" x="714" y="-99.8" font-family="Times,serif" font-size="14.00">ProductPageComponent</text>
</g>
<!-- ProductPageComponent&#45;&gt;ClientModule -->
<g id="edge6" class="edge">
<title>ProductPageComponent&#45;&gt;ClientModule</title>
<path fill="none" stroke="black" d="M714,-122.11C714,-122.11 714,-140.99 714,-140.99"/>
<polygon fill="black" stroke="black" points="710.5,-140.99 714,-150.99 717.5,-140.99 710.5,-140.99"/>
</g>
<!-- LibraryModule -->
<g id="node8" class="node">
<title>LibraryModule</title>
<polygon fill="#8dd3c7" stroke="black" points="613.53,-122 610.53,-126 589.53,-126 586.53,-122 512.47,-122 512.47,-86 613.53,-86 613.53,-122"/>
<text text-anchor="middle" x="563" y="-99.8" font-family="Times,serif" font-size="14.00">LibraryModule</text>
</g>
<!-- LibraryModule&#45;&gt;ClientModule -->
<g id="edge7" class="edge">
<title>LibraryModule&#45;&gt;ClientModule</title>
<path fill="none" stroke="black" d="M563,-122.24C563,-137.57 563,-157 563,-157 563,-157 657.05,-157 657.05,-157"/>
<polygon fill="black" stroke="black" points="657.05,-160.5 667.05,-157 657.05,-153.5 657.05,-160.5"/>
</g>
<!-- LoadingComponent -->
<g id="node9" class="node">
<title>LoadingComponent</title>
<polygon fill="#8dd3c7" stroke="black" points="493.99,-122 490.99,-126 469.99,-126 466.99,-122 366.01,-122 366.01,-86 493.99,-86 493.99,-122"/>
<text text-anchor="middle" x="430" y="-99.8" font-family="Times,serif" font-size="14.00">LoadingComponent</text>
</g>
<!-- LoadingComponent&#45;&gt;ClientModule -->
<g id="edge8" class="edge">
<title>LoadingComponent&#45;&gt;ClientModule</title>
<path fill="none" stroke="black" d="M430,-122.02C430,-139.37 430,-163 430,-163 430,-163 657.1,-163 657.1,-163"/>
<polygon fill="black" stroke="black" points="657.1,-166.5 667.1,-163 657.1,-159.5 657.1,-166.5"/>
</g>
<!-- MatPaginator -->
<g id="node10" class="node">
<title>MatPaginator</title>
<polygon fill="#8dd3c7" stroke="black" points="348.2,-122 345.2,-126 324.2,-126 321.2,-122 255.8,-122 255.8,-86 348.2,-86 348.2,-122"/>
<text text-anchor="middle" x="302" y="-99.8" font-family="Times,serif" font-size="14.00">MatPaginator</text>
</g>
<!-- MatPaginator&#45;&gt;ClientModule -->
<g id="edge9" class="edge">
<title>MatPaginator&#45;&gt;ClientModule</title>
<path fill="none" stroke="black" d="M302,-122.11C302,-141.34 302,-169 302,-169 302,-169 657.14,-169 657.14,-169"/>
<polygon fill="black" stroke="black" points="657.14,-172.5 667.14,-169 657.14,-165.5 657.14,-172.5"/>
</g>
<!-- PlaceholderPipe -->
<g id="node11" class="node">
<title>PlaceholderPipe</title>
<polygon fill="#8dd3c7" stroke="black" points="237.47,-122 234.47,-126 213.47,-126 210.47,-122 130.53,-122 130.53,-86 237.47,-86 237.47,-122"/>
<text text-anchor="middle" x="184" y="-99.8" font-family="Times,serif" font-size="14.00">PlaceholderPipe</text>
</g>
<!-- PlaceholderPipe&#45;&gt;ClientModule -->
<g id="edge10" class="edge">
<title>PlaceholderPipe&#45;&gt;ClientModule</title>
<path fill="none" stroke="black" d="M184,-122.28C184,-143.32 184,-175 184,-175 184,-175 656.97,-175 656.97,-175"/>
<polygon fill="black" stroke="black" points="656.97,-178.5 666.97,-175 656.97,-171.5 656.97,-178.5"/>
</g>
<!-- ShopModule -->
<g id="node12" class="node">
<title>ShopModule</title>
<polygon fill="#8dd3c7" stroke="black" points="112.33,-122 109.33,-126 88.33,-126 85.33,-122 23.67,-122 23.67,-86 112.33,-86 112.33,-122"/>
<text text-anchor="middle" x="68" y="-99.8" font-family="Times,serif" font-size="14.00">ShopModule</text>
</g>
<!-- ShopModule&#45;&gt;ClientModule -->
<g id="edge11" class="edge">
<title>ShopModule&#45;&gt;ClientModule</title>
<path fill="none" stroke="black" d="M68,-122.09C68,-145.13 68,-182 68,-182 68,-182 657.02,-182 657.02,-182"/>
<polygon fill="black" stroke="black" points="657.02,-185.5 667.02,-182 657.02,-178.5 657.02,-185.5"/>
</g>
</g>
</svg>
