<?xml version="1.0" encoding="UTF-8" standalone="no"?>
<!DOCTYPE svg PUBLIC "-//W3C//DTD SVG 1.1//EN"
 "http://www.w3.org/Graphics/SVG/1.1/DTD/svg11.dtd">
<!-- Generated by graphviz version 2.47.0 (20210316.0004)
 -->
<!-- Title: dependencies Pages: 1 -->
<svg width="1805pt" height="211pt"
 viewBox="0.00 0.00 1805.00 211.00" xmlns="http://www.w3.org/2000/svg" xmlns:xlink="http://www.w3.org/1999/xlink">
<g id="graph0" class="graph" transform="scale(1 1) rotate(0) translate(4 207)">
<title>dependencies</title>
<polygon fill="white" stroke="transparent" points="-4,4 -4,-207 1801,-207 1801,4 -4,4"/>
<text text-anchor="start" x="877.51" y="-42.4" font-family="Times-12" font-weight="bold" font-size="14.00">Legend</text>
<polygon fill="#ffffb3" stroke="transparent" points="664.5,-10 664.5,-30 684.5,-30 684.5,-10 664.5,-10"/>
<text text-anchor="start" x="688.13" y="-15.4" font-family="Times-12" font-size="14.00"> &#160;Declarations</text>
<polygon fill="#8dd3c7" stroke="transparent" points="777.5,-10 777.5,-30 797.5,-30 797.5,-10 777.5,-10"/>
<text text-anchor="start" x="801.23" y="-15.4" font-family="Times-12" font-size="14.00"> &#160;Module</text>
<polygon fill="#80b1d3" stroke="transparent" points="863.5,-10 863.5,-30 883.5,-30 883.5,-10 863.5,-10"/>
<text text-anchor="start" x="887.28" y="-15.4" font-family="Times-12" font-size="14.00"> &#160;Bootstrap</text>
<polygon fill="#fdb462" stroke="transparent" points="960.5,-10 960.5,-30 980.5,-30 980.5,-10 960.5,-10"/>
<text text-anchor="start" x="984.17" y="-15.4" font-family="Times-12" font-size="14.00"> &#160;Providers</text>
<polygon fill="#fb8072" stroke="transparent" points="1056.5,-10 1056.5,-30 1076.5,-30 1076.5,-10 1056.5,-10"/>
<text text-anchor="start" x="1080.23" y="-15.4" font-family="Times-12" font-size="14.00"> &#160;Exports</text>
<g id="clust1" class="cluster">
<title>cluster_ClientModule</title>
<polygon fill="none" stroke="black" stroke-dasharray="1,5" points="8,-70 8,-195 1789,-195 1789,-70 8,-70"/>
</g>
<g id="clust2" class="cluster">
<title>cluster_ClientModule_declarations</title>
<polygon fill="none" stroke="black" points="775,-78 775,-130 1781,-130 1781,-78 775,-78"/>
</g>
<g id="clust9" class="cluster">
<title>cluster_ClientModule_imports</title>
<polygon fill="none" stroke="black" points="16,-78 16,-130 767,-130 767,-78 16,-78"/>
</g>
<!-- ClientViewComponent -->
<g id="node1" class="node">
<title>ClientViewComponent</title>
<polygon fill="#ffffb3" stroke="black" points="1772.87,-122 1627.13,-122 1627.13,-86 1772.87,-86 1772.87,-122"/>
<text text-anchor="middle" x="1700" y="-99.8" font-family="Times,serif" font-size="14.00">ClientViewComponent</text>
</g>
<!-- ClientModule -->
<g id="node7" class="node">
<title>ClientModule</title>
<polygon fill="#8dd3c7" stroke="black" points="829.77,-187 826.77,-191 805.77,-191 802.77,-187 736.23,-187 736.23,-151 829.77,-151 829.77,-187"/>
<text text-anchor="middle" x="783" y="-164.8" font-family="Times,serif" font-size="14.00">ClientModule</text>
</g>
<!-- ClientViewComponent&#45;&gt;ClientModule -->
<g id="edge1" class="edge">
<title>ClientViewComponent&#45;&gt;ClientModule</title>
<path fill="none" stroke="black" d="M1700,-122.09C1700,-145.13 1700,-182 1700,-182 1700,-182 840.05,-182 840.05,-182"/>
<polygon fill="black" stroke="black" points="840.05,-178.5 830.05,-182 840.05,-185.5 840.05,-178.5"/>
</g>
<!-- CreateClientComponent -->
<g id="node2" class="node">
<title>CreateClientComponent</title>
<polygon fill="#ffffb3" stroke="black" points="1609.09,-122 1456.91,-122 1456.91,-86 1609.09,-86 1609.09,-122"/>
<text text-anchor="middle" x="1533" y="-99.8" font-family="Times,serif" font-size="14.00">CreateClientComponent</text>
</g>
<!-- CreateClientComponent&#45;&gt;ClientModule -->
<g id="edge2" class="edge">
<title>CreateClientComponent&#45;&gt;ClientModule</title>
<path fill="none" stroke="black" d="M1533,-122.28C1533,-143.32 1533,-175 1533,-175 1533,-175 839.92,-175 839.92,-175"/>
<polygon fill="black" stroke="black" points="839.92,-171.5 829.92,-175 839.92,-178.5 839.92,-171.5"/>
</g>
<!-- MakeOrderComponent -->
<g id="node3" class="node">
<title>MakeOrderComponent</title>
<polygon fill="#ffffb3" stroke="black" points="1438.85,-122 1293.15,-122 1293.15,-86 1438.85,-86 1438.85,-122"/>
<text text-anchor="middle" x="1366" y="-99.8" font-family="Times,serif" font-size="14.00">MakeOrderComponent</text>
</g>
<!-- MakeOrderComponent&#45;&gt;ClientModule -->
<g id="edge3" class="edge">
<title>MakeOrderComponent&#45;&gt;ClientModule</title>
<path fill="none" stroke="black" d="M1366,-122.11C1366,-141.34 1366,-169 1366,-169 1366,-169 840.22,-169 840.22,-169"/>
<polygon fill="black" stroke="black" points="840.22,-165.5 830.22,-169 840.22,-172.5 840.22,-165.5"/>
</g>
<!-- OrderHistoryComponent -->
<g id="node4" class="node">
<title>OrderHistoryComponent</title>
<polygon fill="#ffffb3" stroke="black" points="1274.97,-122 1119.03,-122 1119.03,-86 1274.97,-86 1274.97,-122"/>
<text text-anchor="middle" x="1197" y="-99.8" font-family="Times,serif" font-size="14.00">OrderHistoryComponent</text>
</g>
<!-- OrderHistoryComponent&#45;&gt;ClientModule -->
<g id="edge4" class="edge">
<title>OrderHistoryComponent&#45;&gt;ClientModule</title>
<path fill="none" stroke="black" d="M1197,-122.02C1197,-139.37 1197,-163 1197,-163 1197,-163 840.09,-163 840.09,-163"/>
<polygon fill="black" stroke="black" points="840.09,-159.5 830.09,-163 840.09,-166.5 840.09,-159.5"/>
</g>
<!-- ProductInfoComponent -->
<g id="node5" class="node">
<title>ProductInfoComponent</title>
<polygon fill="#ffffb3" stroke="black" points="1101.2,-122 952.8,-122 952.8,-86 1101.2,-86 1101.2,-122"/>
<text text-anchor="middle" x="1027" y="-99.8" font-family="Times,serif" font-size="14.00">ProductInfoComponent</text>
</g>
<!-- ProductInfoComponent&#45;&gt;ClientModule -->
<g id="edge5" class="edge">
<title>ProductInfoComponent&#45;&gt;ClientModule</title>
<path fill="none" stroke="black" d="M1027,-122.24C1027,-137.57 1027,-157 1027,-157 1027,-157 840.05,-157 840.05,-157"/>
<polygon fill="black" stroke="black" points="840.05,-153.5 830.05,-157 840.05,-160.5 840.05,-153.5"/>
</g>
<!-- ProductPageComponent -->
<g id="node6" class="node">
<title>ProductPageComponent</title>
<polygon fill="#ffffb3" stroke="black" points="935.09,-122 782.91,-122 782.91,-86 935.09,-86 935.09,-122"/>
<text text-anchor="middle" x="859" y="-99.8" font-family="Times,serif" font-size="14.00">ProductPageComponent</text>
</g>
<!-- ProductPageComponent&#45;&gt;ClientModule -->
<g id="edge6" class="edge">
<title>ProductPageComponent&#45;&gt;ClientModule</title>
<path fill="none" stroke="black" d="M806.42,-122.11C806.42,-122.11 806.42,-140.99 806.42,-140.99"/>
<polygon fill="black" stroke="black" points="802.92,-140.99 806.42,-150.99 809.92,-140.99 802.92,-140.99"/>
</g>
<!-- LibraryModule -->
<g id="node8" class="node">
<title>LibraryModule</title>
<polygon fill="#8dd3c7" stroke="black" points="758.53,-122 755.53,-126 734.53,-126 731.53,-122 657.47,-122 657.47,-86 758.53,-86 758.53,-122"/>
<text text-anchor="middle" x="708" y="-99.8" font-family="Times,serif" font-size="14.00">LibraryModule</text>
</g>
<!-- LibraryModule&#45;&gt;ClientModule -->
<g id="edge7" class="edge">
<title>LibraryModule&#45;&gt;ClientModule</title>
<path fill="none" stroke="black" d="M747.44,-122.11C747.44,-122.11 747.44,-140.99 747.44,-140.99"/>
<polygon fill="black" stroke="black" points="743.94,-140.99 747.44,-150.99 750.94,-140.99 743.94,-140.99"/>
</g>
<!-- LoadingComponent -->
<g id="node9" class="node">
<title>LoadingComponent</title>
<polygon fill="#8dd3c7" stroke="black" points="638.99,-122 635.99,-126 614.99,-126 611.99,-122 511.01,-122 511.01,-86 638.99,-86 638.99,-122"/>
<text text-anchor="middle" x="575" y="-99.8" font-family="Times,serif" font-size="14.00">LoadingComponent</text>
</g>
<!-- LoadingComponent&#45;&gt;ClientModule -->
<g id="edge8" class="edge">
<title>LoadingComponent&#45;&gt;ClientModule</title>
<path fill="none" stroke="black" d="M575,-122.24C575,-137.57 575,-157 575,-157 575,-157 726.06,-157 726.06,-157"/>
<polygon fill="black" stroke="black" points="726.06,-160.5 736.06,-157 726.06,-153.5 726.06,-160.5"/>
</g>
<!-- MatPaginator -->
<g id="node10" class="node">
<title>MatPaginator</title>
<polygon fill="#8dd3c7" stroke="black" points="493.2,-122 490.2,-126 469.2,-126 466.2,-122 400.8,-122 400.8,-86 493.2,-86 493.2,-122"/>
<text text-anchor="middle" x="447" y="-99.8" font-family="Times,serif" font-size="14.00">MatPaginator</text>
</g>
<!-- MatPaginator&#45;&gt;ClientModule -->
<g id="edge9" class="edge">
<title>MatPaginator&#45;&gt;ClientModule</title>
<path fill="none" stroke="black" d="M447,-122.02C447,-139.37 447,-163 447,-163 447,-163 725.93,-163 725.93,-163"/>
<polygon fill="black" stroke="black" points="725.93,-166.5 735.93,-163 725.93,-159.5 725.93,-166.5"/>
</g>
<!-- NgOptimizedImage -->
<g id="node11" class="node">
<title>NgOptimizedImage</title>
<polygon fill="#8dd3c7" stroke="black" points="382.69,-122 379.69,-126 358.69,-126 355.69,-122 255.31,-122 255.31,-86 382.69,-86 382.69,-122"/>
<text text-anchor="middle" x="319" y="-99.8" font-family="Times,serif" font-size="14.00">NgOptimizedImage</text>
</g>
<!-- NgOptimizedImage&#45;&gt;ClientModule -->
<g id="edge10" class="edge">
<title>NgOptimizedImage&#45;&gt;ClientModule</title>
<path fill="none" stroke="black" d="M319,-122.11C319,-141.34 319,-169 319,-169 319,-169 725.96,-169 725.96,-169"/>
<polygon fill="black" stroke="black" points="725.96,-172.5 735.96,-169 725.96,-165.5 725.96,-172.5"/>
</g>
<!-- PlaceholderPipe -->
<g id="node12" class="node">
<title>PlaceholderPipe</title>
<polygon fill="#8dd3c7" stroke="black" points="237.47,-122 234.47,-126 213.47,-126 210.47,-122 130.53,-122 130.53,-86 237.47,-86 237.47,-122"/>
<text text-anchor="middle" x="184" y="-99.8" font-family="Times,serif" font-size="14.00">PlaceholderPipe</text>
</g>
<!-- PlaceholderPipe&#45;&gt;ClientModule -->
<g id="edge11" class="edge">
<title>PlaceholderPipe&#45;&gt;ClientModule</title>
<path fill="none" stroke="black" d="M184,-122.28C184,-143.32 184,-175 184,-175 184,-175 726,-175 726,-175"/>
<polygon fill="black" stroke="black" points="726,-178.5 736,-175 726,-171.5 726,-178.5"/>
</g>
<!-- ShopModule -->
<g id="node13" class="node">
<title>ShopModule</title>
<polygon fill="#8dd3c7" stroke="black" points="112.33,-122 109.33,-126 88.33,-126 85.33,-122 23.67,-122 23.67,-86 112.33,-86 112.33,-122"/>
<text text-anchor="middle" x="68" y="-99.8" font-family="Times,serif" font-size="14.00">ShopModule</text>
</g>
<!-- ShopModule&#45;&gt;ClientModule -->
<g id="edge12" class="edge">
<title>ShopModule&#45;&gt;ClientModule</title>
<path fill="none" stroke="black" d="M68,-122.09C68,-145.13 68,-182 68,-182 68,-182 726.09,-182 726.09,-182"/>
<polygon fill="black" stroke="black" points="726.09,-185.5 736.09,-182 726.09,-178.5 726.09,-185.5"/>
</g>
</g>
</svg>
