<?xml version="1.0" encoding="UTF-8" standalone="no"?>
<!DOCTYPE svg PUBLIC "-//W3C//DTD SVG 1.1//EN"
 "http://www.w3.org/Graphics/SVG/1.1/DTD/svg11.dtd">
<!-- Generated by graphviz version 2.47.0 (20210316.0004)
 -->
<!-- Title: dependencies Pages: 1 -->
<svg width="852pt" height="284pt"
 viewBox="0.00 0.00 852.00 284.00" xmlns="http://www.w3.org/2000/svg" xmlns:xlink="http://www.w3.org/1999/xlink">
<g id="graph0" class="graph" transform="scale(1 1) rotate(0) translate(4 280)">
<title>dependencies</title>
<polygon fill="white" stroke="transparent" points="-4,4 -4,-280 848,-280 848,4 -4,4"/>
<text text-anchor="start" x="401.01" y="-42.4" font-family="Times-12" font-weight="bold" font-size="14.00">Legend</text>
<polygon fill="#ffffb3" stroke="transparent" points="188,-10 188,-30 208,-30 208,-10 188,-10"/>
<text text-anchor="start" x="211.63" y="-15.4" font-family="Times-12" font-size="14.00"> &#160;Declarations</text>
<polygon fill="#8dd3c7" stroke="transparent" points="301,-10 301,-30 321,-30 321,-10 301,-10"/>
<text text-anchor="start" x="324.73" y="-15.4" font-family="Times-12" font-size="14.00"> &#160;Module</text>
<polygon fill="#80b1d3" stroke="transparent" points="387,-10 387,-30 407,-30 407,-10 387,-10"/>
<text text-anchor="start" x="410.78" y="-15.4" font-family="Times-12" font-size="14.00"> &#160;Bootstrap</text>
<polygon fill="#fdb462" stroke="transparent" points="484,-10 484,-30 504,-30 504,-10 484,-10"/>
<text text-anchor="start" x="507.67" y="-15.4" font-family="Times-12" font-size="14.00"> &#160;Providers</text>
<polygon fill="#fb8072" stroke="transparent" points="580,-10 580,-30 600,-30 600,-10 580,-10"/>
<text text-anchor="start" x="603.73" y="-15.4" font-family="Times-12" font-size="14.00"> &#160;Exports</text>
<g id="clust1" class="cluster">
<title>cluster_AuthenticationModule</title>
<polygon fill="none" stroke="black" stroke-dasharray="1,5" points="8,-70 8,-268 836,-268 836,-70 8,-70"/>
</g>
<g id="clust2" class="cluster">
<title>cluster_AuthenticationModule_declarations</title>
<polygon fill="none" stroke="black" points="186,-78 186,-130 828,-130 828,-78 186,-78"/>
</g>
<g id="clust8" class="cluster">
<title>cluster_AuthenticationModule_exports</title>
<polygon fill="none" stroke="black" points="250,-208 250,-260 574,-260 574,-208 250,-208"/>
</g>
<g id="clust10" class="cluster">
<title>cluster_AuthenticationModule_providers</title>
<polygon fill="none" stroke="black" points="16,-78 16,-130 178,-130 178,-78 16,-78"/>
</g>
<!-- AuthenticatedComponent -->
<g id="node1" class="node">
<title>AuthenticatedComponent</title>
<polygon fill="#ffffb3" stroke="black" points="819.86,-122 660.14,-122 660.14,-86 819.86,-86 819.86,-122"/>
<text text-anchor="middle" x="740" y="-99.8" font-family="Times,serif" font-size="14.00">AuthenticatedComponent</text>
</g>
<!-- AuthenticationModule -->
<g id="node5" class="node">
<title>AuthenticationModule</title>
<polygon fill="#8dd3c7" stroke="black" points="496.25,-187 493.25,-191 472.25,-191 469.25,-187 353.75,-187 353.75,-151 496.25,-151 496.25,-187"/>
<text text-anchor="middle" x="425" y="-164.8" font-family="Times,serif" font-size="14.00">AuthenticationModule</text>
</g>
<!-- AuthenticatedComponent&#45;&gt;AuthenticationModule -->
<g id="edge1" class="edge">
<title>AuthenticatedComponent&#45;&gt;AuthenticationModule</title>
<path fill="none" stroke="black" d="M740,-122.28C740,-143.32 740,-175 740,-175 740,-175 506.48,-175 506.48,-175"/>
<polygon fill="black" stroke="black" points="506.48,-171.5 496.48,-175 506.48,-178.5 506.48,-171.5"/>
</g>
<!-- LoginComponent -->
<g id="node2" class="node">
<title>LoginComponent</title>
<polygon fill="#ffffb3" stroke="black" points="642.28,-122 527.72,-122 527.72,-86 642.28,-86 642.28,-122"/>
<text text-anchor="middle" x="585" y="-99.8" font-family="Times,serif" font-size="14.00">LoginComponent</text>
</g>
<!-- LoginComponent&#45;&gt;AuthenticationModule -->
<g id="edge2" class="edge">
<title>LoginComponent&#45;&gt;AuthenticationModule</title>
<path fill="none" stroke="black" d="M546.88,-122.02C546.88,-139.37 546.88,-163 546.88,-163 546.88,-163 506.6,-163 506.6,-163"/>
<polygon fill="black" stroke="black" points="506.6,-159.5 496.6,-163 506.6,-166.5 506.6,-159.5"/>
</g>
<!-- OAuthCallbackComponent -->
<g id="node3" class="node">
<title>OAuthCallbackComponent</title>
<polygon fill="#ffffb3" stroke="black" points="509.7,-122 340.3,-122 340.3,-86 509.7,-86 509.7,-122"/>
<text text-anchor="middle" x="425" y="-99.8" font-family="Times,serif" font-size="14.00">OAuthCallbackComponent</text>
</g>
<!-- OAuthCallbackComponent&#45;&gt;AuthenticationModule -->
<g id="edge3" class="edge">
<title>OAuthCallbackComponent&#45;&gt;AuthenticationModule</title>
<path fill="none" stroke="black" d="M425,-122.11C425,-122.11 425,-140.99 425,-140.99"/>
<polygon fill="black" stroke="black" points="421.5,-140.99 425,-150.99 428.5,-140.99 421.5,-140.99"/>
</g>
<!-- RegisterComponent -->
<g id="node4" class="node">
<title>RegisterComponent</title>
<polygon fill="#ffffb3" stroke="black" points="321.98,-122 194.02,-122 194.02,-86 321.98,-86 321.98,-122"/>
<text text-anchor="middle" x="258" y="-99.8" font-family="Times,serif" font-size="14.00">RegisterComponent</text>
</g>
<!-- RegisterComponent&#45;&gt;AuthenticationModule -->
<g id="edge4" class="edge">
<title>RegisterComponent&#45;&gt;AuthenticationModule</title>
<path fill="none" stroke="black" d="M289.82,-122.02C289.82,-139.37 289.82,-163 289.82,-163 289.82,-163 343.45,-163 343.45,-163"/>
<polygon fill="black" stroke="black" points="343.45,-166.5 353.45,-163 343.45,-159.5 343.45,-166.5"/>
</g>
<!-- LoginComponent  -->
<g id="node6" class="node">
<title>LoginComponent </title>
<polygon fill="#fb8072" stroke="black" points="566.28,-252 447.72,-252 447.72,-216 566.28,-216 566.28,-252"/>
<text text-anchor="middle" x="507" y="-229.8" font-family="Times,serif" font-size="14.00">LoginComponent </text>
</g>
<!-- AuthenticationModule&#45;&gt;LoginComponent  -->
<g id="edge5" class="edge">
<title>AuthenticationModule&#45;&gt;LoginComponent </title>
<path fill="none" stroke="black" stroke-dasharray="5,2" d="M472.12,-187.11C472.12,-187.11 472.12,-205.99 472.12,-205.99"/>
<polygon fill="black" stroke="black" points="468.62,-205.99 472.12,-215.99 475.62,-205.99 468.62,-205.99"/>
</g>
<!-- OAuthCallbackComponent  -->
<g id="node7" class="node">
<title>OAuthCallbackComponent </title>
<polygon fill="#fb8072" stroke="black" points="430.2,-252 257.8,-252 257.8,-216 430.2,-216 430.2,-252"/>
<text text-anchor="middle" x="344" y="-229.8" font-family="Times,serif" font-size="14.00">OAuthCallbackComponent </text>
</g>
<!-- AuthenticationModule&#45;&gt;OAuthCallbackComponent  -->
<g id="edge6" class="edge">
<title>AuthenticationModule&#45;&gt;OAuthCallbackComponent </title>
<path fill="none" stroke="black" stroke-dasharray="5,2" d="M391.99,-187.11C391.99,-187.11 391.99,-205.99 391.99,-205.99"/>
<polygon fill="black" stroke="black" points="388.49,-205.99 391.99,-215.99 395.49,-205.99 388.49,-205.99"/>
</g>
<!-- AuthInterceptor -->
<g id="node8" class="node">
<title>AuthInterceptor</title>
<ellipse fill="#fdb462" stroke="black" cx="97" cy="-104" rx="72.91" ry="18"/>
<text text-anchor="middle" x="97" y="-99.8" font-family="Times,serif" font-size="14.00">AuthInterceptor</text>
</g>
<!-- AuthInterceptor&#45;&gt;AuthenticationModule -->
<g id="edge7" class="edge">
<title>AuthInterceptor&#45;&gt;AuthenticationModule</title>
<path fill="none" stroke="black" d="M97,-122.28C97,-143.32 97,-175 97,-175 97,-175 343.42,-175 343.42,-175"/>
<polygon fill="black" stroke="black" points="343.42,-178.5 353.42,-175 343.42,-171.5 343.42,-178.5"/>
</g>
</g>
</svg>
