<?xml version="1.0" encoding="UTF-8" standalone="no"?>
<!DOCTYPE svg PUBLIC "-//W3C//DTD SVG 1.1//EN"
 "http://www.w3.org/Graphics/SVG/1.1/DTD/svg11.dtd">
<!-- Generated by graphviz version 2.47.0 (20210316.0004)
 -->
<!-- Title: dependencies Pages: 1 -->
<svg width="2667pt" height="211pt"
 viewBox="0.00 0.00 2667.00 211.00" xmlns="http://www.w3.org/2000/svg" xmlns:xlink="http://www.w3.org/1999/xlink">
<g id="graph0" class="graph" transform="scale(1 1) rotate(0) translate(4 207)">
<title>dependencies</title>
<polygon fill="white" stroke="transparent" points="-4,4 -4,-207 2663,-207 2663,4 -4,4"/>
<text text-anchor="start" x="1308.51" y="-42.4" font-family="Times-12" font-weight="bold" font-size="14.00">Legend</text>
<polygon fill="#ffffb3" stroke="transparent" points="1095.5,-10 1095.5,-30 1115.5,-30 1115.5,-10 1095.5,-10"/>
<text text-anchor="start" x="1119.13" y="-15.4" font-family="Times-12" font-size="14.00"> &#160;Declarations</text>
<polygon fill="#8dd3c7" stroke="transparent" points="1208.5,-10 1208.5,-30 1228.5,-30 1228.5,-10 1208.5,-10"/>
<text text-anchor="start" x="1232.23" y="-15.4" font-family="Times-12" font-size="14.00"> &#160;Module</text>
<polygon fill="#80b1d3" stroke="transparent" points="1294.5,-10 1294.5,-30 1314.5,-30 1314.5,-10 1294.5,-10"/>
<text text-anchor="start" x="1318.28" y="-15.4" font-family="Times-12" font-size="14.00"> &#160;Bootstrap</text>
<polygon fill="#fdb462" stroke="transparent" points="1391.5,-10 1391.5,-30 1411.5,-30 1411.5,-10 1391.5,-10"/>
<text text-anchor="start" x="1415.17" y="-15.4" font-family="Times-12" font-size="14.00"> &#160;Providers</text>
<polygon fill="#fb8072" stroke="transparent" points="1487.5,-10 1487.5,-30 1507.5,-30 1507.5,-10 1487.5,-10"/>
<text text-anchor="start" x="1511.23" y="-15.4" font-family="Times-12" font-size="14.00"> &#160;Exports</text>
<g id="clust1" class="cluster">
<title>cluster_ManagerModule</title>
<polygon fill="none" stroke="black" stroke-dasharray="1,5" points="8,-70 8,-195 2651,-195 2651,-70 8,-70"/>
</g>
<g id="clust2" class="cluster">
<title>cluster_ManagerModule_declarations</title>
<polygon fill="none" stroke="black" points="859,-78 859,-130 2643,-130 2643,-78 859,-78"/>
</g>
<g id="clust13" class="cluster">
<title>cluster_ManagerModule_imports</title>
<polygon fill="none" stroke="black" points="16,-78 16,-130 851,-130 851,-78 16,-78"/>
</g>
<!-- AuthorTableComponent -->
<g id="node1" class="node">
<title>AuthorTableComponent</title>
<polygon fill="#ffffb3" stroke="black" points="2635.36,-122 2482.64,-122 2482.64,-86 2635.36,-86 2635.36,-122"/>
<text text-anchor="middle" x="2559" y="-99.8" font-family="Times,serif" font-size="14.00">AuthorTableComponent</text>
</g>
<!-- ManagerModule -->
<g id="node11" class="node">
<title>ManagerModule</title>
<polygon fill="#8dd3c7" stroke="black" points="1271.8,-187 1268.8,-191 1247.8,-191 1244.8,-187 1162.2,-187 1162.2,-151 1271.8,-151 1271.8,-187"/>
<text text-anchor="middle" x="1217" y="-164.8" font-family="Times,serif" font-size="14.00">ManagerModule</text>
</g>
<!-- AuthorTableComponent&#45;&gt;ManagerModule -->
<g id="edge1" class="edge">
<title>AuthorTableComponent&#45;&gt;ManagerModule</title>
<path fill="none" stroke="black" d="M2559,-122.32C2559,-145.66 2559,-183 2559,-183 2559,-183 1281.69,-183 1281.69,-183"/>
<polygon fill="black" stroke="black" points="1281.69,-179.5 1271.69,-183 1281.69,-186.5 1281.69,-179.5"/>
</g>
<!-- BookStockDetailsComponent -->
<g id="node2" class="node">
<title>BookStockDetailsComponent</title>
<polygon fill="#ffffb3" stroke="black" points="2464.71,-122 2281.29,-122 2281.29,-86 2464.71,-86 2464.71,-122"/>
<text text-anchor="middle" x="2373" y="-99.8" font-family="Times,serif" font-size="14.00">BookStockDetailsComponent</text>
</g>
<!-- BookStockDetailsComponent&#45;&gt;ManagerModule -->
<g id="edge2" class="edge">
<title>BookStockDetailsComponent&#45;&gt;ManagerModule</title>
<path fill="none" stroke="black" d="M2373,-122.29C2373,-144.21 2373,-178 2373,-178 2373,-178 1281.98,-178 1281.98,-178"/>
<polygon fill="black" stroke="black" points="1281.98,-174.5 1271.98,-178 1281.98,-181.5 1281.98,-174.5"/>
</g>
<!-- BookStockTableComponent -->
<g id="node3" class="node">
<title>BookStockTableComponent</title>
<polygon fill="#ffffb3" stroke="black" points="2263.93,-122 2088.07,-122 2088.07,-86 2263.93,-86 2263.93,-122"/>
<text text-anchor="middle" x="2176" y="-99.8" font-family="Times,serif" font-size="14.00">BookStockTableComponent</text>
</g>
<!-- BookStockTableComponent&#45;&gt;ManagerModule -->
<g id="edge3" class="edge">
<title>BookStockTableComponent&#45;&gt;ManagerModule</title>
<path fill="none" stroke="black" d="M2176,-122.03C2176,-142.77 2176,-174 2176,-174 2176,-174 1281.66,-174 1281.66,-174"/>
<polygon fill="black" stroke="black" points="1281.66,-170.5 1271.66,-174 1281.66,-177.5 1281.66,-170.5"/>
</g>
<!-- BookTableComponent -->
<g id="node4" class="node">
<title>BookTableComponent</title>
<polygon fill="#ffffb3" stroke="black" points="2070.54,-122 1927.46,-122 1927.46,-86 2070.54,-86 2070.54,-122"/>
<text text-anchor="middle" x="1999" y="-99.8" font-family="Times,serif" font-size="14.00">BookTableComponent</text>
</g>
<!-- BookTableComponent&#45;&gt;ManagerModule -->
<g id="edge4" class="edge">
<title>BookTableComponent&#45;&gt;ManagerModule</title>
<path fill="none" stroke="black" d="M1999,-122.11C1999,-141.34 1999,-169 1999,-169 1999,-169 1281.68,-169 1281.68,-169"/>
<polygon fill="black" stroke="black" points="1281.68,-165.5 1271.68,-169 1281.68,-172.5 1281.68,-165.5"/>
</g>
<!-- GenreTableComponent -->
<g id="node5" class="node">
<title>GenreTableComponent</title>
<polygon fill="#ffffb3" stroke="black" points="1909.9,-122 1762.1,-122 1762.1,-86 1909.9,-86 1909.9,-122"/>
<text text-anchor="middle" x="1836" y="-99.8" font-family="Times,serif" font-size="14.00">GenreTableComponent</text>
</g>
<!-- GenreTableComponent&#45;&gt;ManagerModule -->
<g id="edge5" class="edge">
<title>GenreTableComponent&#45;&gt;ManagerModule</title>
<path fill="none" stroke="black" d="M1836,-122.3C1836,-140.27 1836,-165 1836,-165 1836,-165 1281.66,-165 1281.66,-165"/>
<polygon fill="black" stroke="black" points="1281.66,-161.5 1271.66,-165 1281.66,-168.5 1281.66,-161.5"/>
</g>
<!-- ManagerTableComponent -->
<g id="node6" class="node">
<title>ManagerTableComponent</title>
<polygon fill="#ffffb3" stroke="black" points="1744.45,-122 1581.55,-122 1581.55,-86 1744.45,-86 1744.45,-122"/>
<text text-anchor="middle" x="1663" y="-99.8" font-family="Times,serif" font-size="14.00">ManagerTableComponent</text>
</g>
<!-- ManagerTableComponent&#45;&gt;ManagerModule -->
<g id="edge6" class="edge">
<title>ManagerTableComponent&#45;&gt;ManagerModule</title>
<path fill="none" stroke="black" d="M1663,-122.03C1663,-138.4 1663,-160 1663,-160 1663,-160 1281.69,-160 1281.69,-160"/>
<polygon fill="black" stroke="black" points="1281.69,-156.5 1271.69,-160 1281.69,-163.5 1281.69,-156.5"/>
</g>
<!-- OrderDetailsComponent -->
<g id="node7" class="node">
<title>OrderDetailsComponent</title>
<polygon fill="#ffffb3" stroke="black" points="1563.63,-122 1410.37,-122 1410.37,-86 1563.63,-86 1563.63,-122"/>
<text text-anchor="middle" x="1487" y="-99.8" font-family="Times,serif" font-size="14.00">OrderDetailsComponent</text>
</g>
<!-- OrderDetailsComponent&#45;&gt;ManagerModule -->
<g id="edge7" class="edge">
<title>OrderDetailsComponent&#45;&gt;ManagerModule</title>
<path fill="none" stroke="black" d="M1487,-122.19C1487,-137.18 1487,-156 1487,-156 1487,-156 1281.96,-156 1281.96,-156"/>
<polygon fill="black" stroke="black" points="1281.96,-152.5 1271.96,-156 1281.96,-159.5 1281.96,-152.5"/>
</g>
<!-- PublisherTableComponent -->
<g id="node8" class="node">
<title>PublisherTableComponent</title>
<polygon fill="#ffffb3" stroke="black" points="1392.09,-122 1225.91,-122 1225.91,-86 1392.09,-86 1392.09,-122"/>
<text text-anchor="middle" x="1309" y="-99.8" font-family="Times,serif" font-size="14.00">PublisherTableComponent</text>
</g>
<!-- PublisherTableComponent&#45;&gt;ManagerModule -->
<g id="edge8" class="edge">
<title>PublisherTableComponent&#45;&gt;ManagerModule</title>
<path fill="none" stroke="black" d="M1248.8,-122.11C1248.8,-122.11 1248.8,-140.99 1248.8,-140.99"/>
<polygon fill="black" stroke="black" points="1245.3,-140.99 1248.8,-150.99 1252.3,-140.99 1245.3,-140.99"/>
</g>
<!-- StatisticsChartComponent -->
<g id="node9" class="node">
<title>StatisticsChartComponent</title>
<polygon fill="#ffffb3" stroke="black" points="1207.49,-122 1044.51,-122 1044.51,-86 1207.49,-86 1207.49,-122"/>
<text text-anchor="middle" x="1126" y="-99.8" font-family="Times,serif" font-size="14.00">StatisticsChartComponent</text>
</g>
<!-- StatisticsChartComponent&#45;&gt;ManagerModule -->
<g id="edge9" class="edge">
<title>StatisticsChartComponent&#45;&gt;ManagerModule</title>
<path fill="none" stroke="black" d="M1184.92,-122.11C1184.92,-122.11 1184.92,-140.99 1184.92,-140.99"/>
<polygon fill="black" stroke="black" points="1181.42,-140.99 1184.92,-150.99 1188.42,-140.99 1181.42,-140.99"/>
</g>
<!-- StatisticsPageComponent -->
<g id="node10" class="node">
<title>StatisticsPageComponent</title>
<polygon fill="#ffffb3" stroke="black" points="1026.6,-122 867.4,-122 867.4,-86 1026.6,-86 1026.6,-122"/>
<text text-anchor="middle" x="947" y="-99.8" font-family="Times,serif" font-size="14.00">StatisticsPageComponent</text>
</g>
<!-- StatisticsPageComponent&#45;&gt;ManagerModule -->
<g id="edge10" class="edge">
<title>StatisticsPageComponent&#45;&gt;ManagerModule</title>
<path fill="none" stroke="black" d="M947,-122.19C947,-137.18 947,-156 947,-156 947,-156 1152.04,-156 1152.04,-156"/>
<polygon fill="black" stroke="black" points="1152.04,-159.5 1162.04,-156 1152.04,-152.5 1152.04,-159.5"/>
</g>
<!-- GenericTableComponent -->
<g id="node12" class="node">
<title>GenericTableComponent</title>
<polygon fill="#8dd3c7" stroke="black" points="842.51,-122 839.51,-126 818.51,-126 815.51,-122 685.49,-122 685.49,-86 842.51,-86 842.51,-122"/>
<text text-anchor="middle" x="764" y="-99.8" font-family="Times,serif" font-size="14.00">GenericTableComponent</text>
</g>
<!-- GenericTableComponent&#45;&gt;ManagerModule -->
<g id="edge11" class="edge">
<title>GenericTableComponent&#45;&gt;ManagerModule</title>
<path fill="none" stroke="black" d="M764,-122.03C764,-138.4 764,-160 764,-160 764,-160 1151.91,-160 1151.91,-160"/>
<polygon fill="black" stroke="black" points="1151.91,-163.5 1161.91,-160 1151.91,-156.5 1151.91,-163.5"/>
</g>
<!-- LibraryModule -->
<g id="node13" class="node">
<title>LibraryModule</title>
<polygon fill="#8dd3c7" stroke="black" points="666.53,-122 663.53,-126 642.53,-126 639.53,-122 565.47,-122 565.47,-86 666.53,-86 666.53,-122"/>
<text text-anchor="middle" x="616" y="-99.8" font-family="Times,serif" font-size="14.00">LibraryModule</text>
</g>
<!-- LibraryModule&#45;&gt;ManagerModule -->
<g id="edge12" class="edge">
<title>LibraryModule&#45;&gt;ManagerModule</title>
<path fill="none" stroke="black" d="M616,-122.3C616,-140.27 616,-165 616,-165 616,-165 1152.34,-165 1152.34,-165"/>
<polygon fill="black" stroke="black" points="1152.34,-168.5 1162.34,-165 1152.34,-161.5 1152.34,-168.5"/>
</g>
<!-- LoadingComponent -->
<g id="node14" class="node">
<title>LoadingComponent</title>
<polygon fill="#8dd3c7" stroke="black" points="546.99,-122 543.99,-126 522.99,-126 519.99,-122 419.01,-122 419.01,-86 546.99,-86 546.99,-122"/>
<text text-anchor="middle" x="483" y="-99.8" font-family="Times,serif" font-size="14.00">LoadingComponent</text>
</g>
<!-- LoadingComponent&#45;&gt;ManagerModule -->
<g id="edge13" class="edge">
<title>LoadingComponent&#45;&gt;ManagerModule</title>
<path fill="none" stroke="black" d="M483,-122.11C483,-141.34 483,-169 483,-169 483,-169 1152.13,-169 1152.13,-169"/>
<polygon fill="black" stroke="black" points="1152.13,-172.5 1162.13,-169 1152.13,-165.5 1152.13,-172.5"/>
</g>
<!-- OrderTableComponent -->
<g id="node15" class="node">
<title>OrderTableComponent</title>
<polygon fill="#8dd3c7" stroke="black" points="400.85,-122 397.85,-126 376.85,-126 373.85,-122 255.15,-122 255.15,-86 400.85,-86 400.85,-122"/>
<text text-anchor="middle" x="328" y="-99.8" font-family="Times,serif" font-size="14.00">OrderTableComponent</text>
</g>
<!-- OrderTableComponent&#45;&gt;ManagerModule -->
<g id="edge14" class="edge">
<title>OrderTableComponent&#45;&gt;ManagerModule</title>
<path fill="none" stroke="black" d="M328,-122.03C328,-142.77 328,-174 328,-174 328,-174 1152.06,-174 1152.06,-174"/>
<polygon fill="black" stroke="black" points="1152.06,-177.5 1162.06,-174 1152.06,-170.5 1152.06,-177.5"/>
</g>
<!-- PlaceholderPipe -->
<g id="node16" class="node">
<title>PlaceholderPipe</title>
<polygon fill="#8dd3c7" stroke="black" points="237.47,-122 234.47,-126 213.47,-126 210.47,-122 130.53,-122 130.53,-86 237.47,-86 237.47,-122"/>
<text text-anchor="middle" x="184" y="-99.8" font-family="Times,serif" font-size="14.00">PlaceholderPipe</text>
</g>
<!-- PlaceholderPipe&#45;&gt;ManagerModule -->
<g id="edge15" class="edge">
<title>PlaceholderPipe&#45;&gt;ManagerModule</title>
<path fill="none" stroke="black" d="M184,-122.29C184,-144.21 184,-178 184,-178 184,-178 1152.19,-178 1152.19,-178"/>
<polygon fill="black" stroke="black" points="1152.19,-181.5 1162.19,-178 1152.19,-174.5 1152.19,-181.5"/>
</g>
<!-- ShopModule -->
<g id="node17" class="node">
<title>ShopModule</title>
<polygon fill="#8dd3c7" stroke="black" points="112.33,-122 109.33,-126 88.33,-126 85.33,-122 23.67,-122 23.67,-86 112.33,-86 112.33,-122"/>
<text text-anchor="middle" x="68" y="-99.8" font-family="Times,serif" font-size="14.00">ShopModule</text>
</g>
<!-- ShopModule&#45;&gt;ManagerModule -->
<g id="edge16" class="edge">
<title>ShopModule&#45;&gt;ManagerModule</title>
<path fill="none" stroke="black" d="M68,-122.32C68,-145.66 68,-183 68,-183 68,-183 1151.97,-183 1151.97,-183"/>
<polygon fill="black" stroke="black" points="1151.97,-186.5 1161.97,-183 1151.97,-179.5 1151.97,-186.5"/>
</g>
</g>
</svg>
