<?xml version="1.0" encoding="UTF-8" standalone="no"?>
<!DOCTYPE svg PUBLIC "-//W3C//DTD SVG 1.1//EN"
 "http://www.w3.org/Graphics/SVG/1.1/DTD/svg11.dtd">
<!-- Generated by graphviz version 2.47.0 (20210316.0004)
 -->
<!-- Title: dependencies Pages: 1 -->
<svg width="2667pt" height="211pt"
 viewBox="0.00 0.00 2667.00 211.00" xmlns="http://www.w3.org/2000/svg" xmlns:xlink="http://www.w3.org/1999/xlink">
<g id="graph0" class="graph" transform="scale(1 1) rotate(0) translate(4 207)">
<title>dependencies</title>
<polygon fill="white" stroke="transparent" points="-4,4 -4,-207 2663,-207 2663,4 -4,4"/>
<text text-anchor="start" x="1308.51" y="-42.4" font-family="Times-12" font-weight="bold" font-size="14.00">Legend</text>
<polygon fill="#ffffb3" stroke="transparent" points="1095.5,-10 1095.5,-30 1115.5,-30 1115.5,-10 1095.5,-10"/>
<text text-anchor="start" x="1119.13" y="-15.4" font-family="Times-12" font-size="14.00"> &#160;Declarations</text>
<polygon fill="#8dd3c7" stroke="transparent" points="1208.5,-10 1208.5,-30 1228.5,-30 1228.5,-10 1208.5,-10"/>
<text text-anchor="start" x="1232.23" y="-15.4" font-family="Times-12" font-size="14.00"> &#160;Module</text>
<polygon fill="#80b1d3" stroke="transparent" points="1294.5,-10 1294.5,-30 1314.5,-30 1314.5,-10 1294.5,-10"/>
<text text-anchor="start" x="1318.28" y="-15.4" font-family="Times-12" font-size="14.00"> &#160;Bootstrap</text>
<polygon fill="#fdb462" stroke="transparent" points="1391.5,-10 1391.5,-30 1411.5,-30 1411.5,-10 1391.5,-10"/>
<text text-anchor="start" x="1415.17" y="-15.4" font-family="Times-12" font-size="14.00"> &#160;Providers</text>
<polygon fill="#fb8072" stroke="transparent" points="1487.5,-10 1487.5,-30 1507.5,-30 1507.5,-10 1487.5,-10"/>
<text text-anchor="start" x="1511.23" y="-15.4" font-family="Times-12" font-size="14.00"> &#160;Exports</text>
<g id="clust1" class="cluster">
<title>cluster_ManagerModule</title>
<polygon fill="none" stroke="black" stroke-dasharray="1,5" points="8,-70 8,-195 2651,-195 2651,-70 8,-70"/>
</g>
<g id="clust13" class="cluster">
<title>cluster_ManagerModule_imports</title>
<polygon fill="none" stroke="black" points="1808,-78 1808,-130 2643,-130 2643,-78 1808,-78"/>
</g>
<g id="clust2" class="cluster">
<title>cluster_ManagerModule_declarations</title>
<polygon fill="none" stroke="black" points="16,-78 16,-130 1800,-130 1800,-78 16,-78"/>
</g>
<!-- AuthorTableComponent -->
<g id="node1" class="node">
<title>AuthorTableComponent</title>
<polygon fill="#ffffb3" stroke="black" points="1792.36,-122 1639.64,-122 1639.64,-86 1792.36,-86 1792.36,-122"/>
<text text-anchor="middle" x="1716" y="-99.8" font-family="Times,serif" font-size="14.00">AuthorTableComponent</text>
</g>
<!-- ManagerModule -->
<g id="node11" class="node">
<title>ManagerModule</title>
<polygon fill="#8dd3c7" stroke="black" points="1485.8,-187 1482.8,-191 1461.8,-191 1458.8,-187 1376.2,-187 1376.2,-151 1485.8,-151 1485.8,-187"/>
<text text-anchor="middle" x="1431" y="-164.8" font-family="Times,serif" font-size="14.00">ManagerModule</text>
</g>
<!-- AuthorTableComponent&#45;&gt;ManagerModule -->
<g id="edge1" class="edge">
<title>AuthorTableComponent&#45;&gt;ManagerModule</title>
<path fill="none" stroke="black" d="M1716,-122.19C1716,-137.18 1716,-156 1716,-156 1716,-156 1495.95,-156 1495.95,-156"/>
<polygon fill="black" stroke="black" points="1495.95,-152.5 1485.95,-156 1495.95,-159.5 1495.95,-152.5"/>
</g>
<!-- BookStockDetailsComponent -->
<g id="node2" class="node">
<title>BookStockDetailsComponent</title>
<polygon fill="#ffffb3" stroke="black" points="1621.71,-122 1438.29,-122 1438.29,-86 1621.71,-86 1621.71,-122"/>
<text text-anchor="middle" x="1530" y="-99.8" font-family="Times,serif" font-size="14.00">BookStockDetailsComponent</text>
</g>
<!-- BookStockDetailsComponent&#45;&gt;ManagerModule -->
<g id="edge2" class="edge">
<title>BookStockDetailsComponent&#45;&gt;ManagerModule</title>
<path fill="none" stroke="black" d="M1462.02,-122.11C1462.02,-122.11 1462.02,-140.99 1462.02,-140.99"/>
<polygon fill="black" stroke="black" points="1458.52,-140.99 1462.02,-150.99 1465.52,-140.99 1458.52,-140.99"/>
</g>
<!-- BookStockTableComponent -->
<g id="node3" class="node">
<title>BookStockTableComponent</title>
<polygon fill="#ffffb3" stroke="black" points="1420.93,-122 1245.07,-122 1245.07,-86 1420.93,-86 1420.93,-122"/>
<text text-anchor="middle" x="1333" y="-99.8" font-family="Times,serif" font-size="14.00">BookStockTableComponent</text>
</g>
<!-- BookStockTableComponent&#45;&gt;ManagerModule -->
<g id="edge3" class="edge">
<title>BookStockTableComponent&#45;&gt;ManagerModule</title>
<path fill="none" stroke="black" d="M1398.53,-122.11C1398.53,-122.11 1398.53,-140.99 1398.53,-140.99"/>
<polygon fill="black" stroke="black" points="1395.03,-140.99 1398.53,-150.99 1402.03,-140.99 1395.03,-140.99"/>
</g>
<!-- BookTableComponent -->
<g id="node4" class="node">
<title>BookTableComponent</title>
<polygon fill="#ffffb3" stroke="black" points="1227.54,-122 1084.46,-122 1084.46,-86 1227.54,-86 1227.54,-122"/>
<text text-anchor="middle" x="1156" y="-99.8" font-family="Times,serif" font-size="14.00">BookTableComponent</text>
</g>
<!-- BookTableComponent&#45;&gt;ManagerModule -->
<g id="edge4" class="edge">
<title>BookTableComponent&#45;&gt;ManagerModule</title>
<path fill="none" stroke="black" d="M1156,-122.19C1156,-137.18 1156,-156 1156,-156 1156,-156 1366.34,-156 1366.34,-156"/>
<polygon fill="black" stroke="black" points="1366.34,-159.5 1376.34,-156 1366.34,-152.5 1366.34,-159.5"/>
</g>
<!-- GenreTableComponent -->
<g id="node5" class="node">
<title>GenreTableComponent</title>
<polygon fill="#ffffb3" stroke="black" points="1066.9,-122 919.1,-122 919.1,-86 1066.9,-86 1066.9,-122"/>
<text text-anchor="middle" x="993" y="-99.8" font-family="Times,serif" font-size="14.00">GenreTableComponent</text>
</g>
<!-- GenreTableComponent&#45;&gt;ManagerModule -->
<g id="edge5" class="edge">
<title>GenreTableComponent&#45;&gt;ManagerModule</title>
<path fill="none" stroke="black" d="M993,-122.03C993,-138.4 993,-160 993,-160 993,-160 1365.97,-160 1365.97,-160"/>
<polygon fill="black" stroke="black" points="1365.97,-163.5 1375.97,-160 1365.97,-156.5 1365.97,-163.5"/>
</g>
<!-- ManagerTableComponent -->
<g id="node6" class="node">
<title>ManagerTableComponent</title>
<polygon fill="#ffffb3" stroke="black" points="901.45,-122 738.55,-122 738.55,-86 901.45,-86 901.45,-122"/>
<text text-anchor="middle" x="820" y="-99.8" font-family="Times,serif" font-size="14.00">ManagerTableComponent</text>
</g>
<!-- ManagerTableComponent&#45;&gt;ManagerModule -->
<g id="edge6" class="edge">
<title>ManagerTableComponent&#45;&gt;ManagerModule</title>
<path fill="none" stroke="black" d="M820,-122.3C820,-140.27 820,-165 820,-165 820,-165 1366.24,-165 1366.24,-165"/>
<polygon fill="black" stroke="black" points="1366.24,-168.5 1376.24,-165 1366.24,-161.5 1366.24,-168.5"/>
</g>
<!-- OrderDetailsComponent -->
<g id="node7" class="node">
<title>OrderDetailsComponent</title>
<polygon fill="#ffffb3" stroke="black" points="720.63,-122 567.37,-122 567.37,-86 720.63,-86 720.63,-122"/>
<text text-anchor="middle" x="644" y="-99.8" font-family="Times,serif" font-size="14.00">OrderDetailsComponent</text>
</g>
<!-- OrderDetailsComponent&#45;&gt;ManagerModule -->
<g id="edge7" class="edge">
<title>OrderDetailsComponent&#45;&gt;ManagerModule</title>
<path fill="none" stroke="black" d="M644,-122.11C644,-141.34 644,-169 644,-169 644,-169 1366.28,-169 1366.28,-169"/>
<polygon fill="black" stroke="black" points="1366.28,-172.5 1376.28,-169 1366.28,-165.5 1366.28,-172.5"/>
</g>
<!-- PublisherTableComponent -->
<g id="node8" class="node">
<title>PublisherTableComponent</title>
<polygon fill="#ffffb3" stroke="black" points="549.09,-122 382.91,-122 382.91,-86 549.09,-86 549.09,-122"/>
<text text-anchor="middle" x="466" y="-99.8" font-family="Times,serif" font-size="14.00">PublisherTableComponent</text>
</g>
<!-- PublisherTableComponent&#45;&gt;ManagerModule -->
<g id="edge8" class="edge">
<title>PublisherTableComponent&#45;&gt;ManagerModule</title>
<path fill="none" stroke="black" d="M466,-122.03C466,-142.77 466,-174 466,-174 466,-174 1366,-174 1366,-174"/>
<polygon fill="black" stroke="black" points="1366,-177.5 1376,-174 1366,-170.5 1366,-177.5"/>
</g>
<!-- StatisticsChartComponent -->
<g id="node9" class="node">
<title>StatisticsChartComponent</title>
<polygon fill="#ffffb3" stroke="black" points="364.49,-122 201.51,-122 201.51,-86 364.49,-86 364.49,-122"/>
<text text-anchor="middle" x="283" y="-99.8" font-family="Times,serif" font-size="14.00">StatisticsChartComponent</text>
</g>
<!-- StatisticsChartComponent&#45;&gt;ManagerModule -->
<g id="edge9" class="edge">
<title>StatisticsChartComponent&#45;&gt;ManagerModule</title>
<path fill="none" stroke="black" d="M283,-122.29C283,-144.21 283,-178 283,-178 283,-178 1366.02,-178 1366.02,-178"/>
<polygon fill="black" stroke="black" points="1366.02,-181.5 1376.02,-178 1366.02,-174.5 1366.02,-181.5"/>
</g>
<!-- StatisticsPageComponent -->
<g id="node10" class="node">
<title>StatisticsPageComponent</title>
<polygon fill="#ffffb3" stroke="black" points="183.6,-122 24.4,-122 24.4,-86 183.6,-86 183.6,-122"/>
<text text-anchor="middle" x="104" y="-99.8" font-family="Times,serif" font-size="14.00">StatisticsPageComponent</text>
</g>
<!-- StatisticsPageComponent&#45;&gt;ManagerModule -->
<g id="edge10" class="edge">
<title>StatisticsPageComponent&#45;&gt;ManagerModule</title>
<path fill="none" stroke="black" d="M104,-122.32C104,-145.66 104,-183 104,-183 104,-183 1366.09,-183 1366.09,-183"/>
<polygon fill="black" stroke="black" points="1366.09,-186.5 1376.09,-183 1366.09,-179.5 1366.09,-186.5"/>
</g>
<!-- GenericTableComponent -->
<g id="node12" class="node">
<title>GenericTableComponent</title>
<polygon fill="#8dd3c7" stroke="black" points="2634.51,-122 2631.51,-126 2610.51,-126 2607.51,-122 2477.49,-122 2477.49,-86 2634.51,-86 2634.51,-122"/>
<text text-anchor="middle" x="2556" y="-99.8" font-family="Times,serif" font-size="14.00">GenericTableComponent</text>
</g>
<!-- GenericTableComponent&#45;&gt;ManagerModule -->
<g id="edge11" class="edge">
<title>GenericTableComponent&#45;&gt;ManagerModule</title>
<path fill="none" stroke="black" d="M2556,-122.32C2556,-145.66 2556,-183 2556,-183 2556,-183 1496.02,-183 1496.02,-183"/>
<polygon fill="black" stroke="black" points="1496.02,-179.5 1486.02,-183 1496.02,-186.5 1496.02,-179.5"/>
</g>
<!-- LibraryModule -->
<g id="node13" class="node">
<title>LibraryModule</title>
<polygon fill="#8dd3c7" stroke="black" points="2458.53,-122 2455.53,-126 2434.53,-126 2431.53,-122 2357.47,-122 2357.47,-86 2458.53,-86 2458.53,-122"/>
<text text-anchor="middle" x="2408" y="-99.8" font-family="Times,serif" font-size="14.00">LibraryModule</text>
</g>
<!-- LibraryModule&#45;&gt;ManagerModule -->
<g id="edge12" class="edge">
<title>LibraryModule&#45;&gt;ManagerModule</title>
<path fill="none" stroke="black" d="M2408,-122.29C2408,-144.21 2408,-178 2408,-178 2408,-178 1495.97,-178 1495.97,-178"/>
<polygon fill="black" stroke="black" points="1495.97,-174.5 1485.97,-178 1495.97,-181.5 1495.97,-174.5"/>
</g>
<!-- LoadingComponent -->
<g id="node14" class="node">
<title>LoadingComponent</title>
<polygon fill="#8dd3c7" stroke="black" points="2338.99,-122 2335.99,-126 2314.99,-126 2311.99,-122 2211.01,-122 2211.01,-86 2338.99,-86 2338.99,-122"/>
<text text-anchor="middle" x="2275" y="-99.8" font-family="Times,serif" font-size="14.00">LoadingComponent</text>
</g>
<!-- LoadingComponent&#45;&gt;ManagerModule -->
<g id="edge13" class="edge">
<title>LoadingComponent&#45;&gt;ManagerModule</title>
<path fill="none" stroke="black" d="M2275,-122.03C2275,-142.77 2275,-174 2275,-174 2275,-174 1495.73,-174 1495.73,-174"/>
<polygon fill="black" stroke="black" points="1495.73,-170.5 1485.73,-174 1495.73,-177.5 1495.73,-170.5"/>
</g>
<!-- OrderTableComponent -->
<g id="node15" class="node">
<title>OrderTableComponent</title>
<polygon fill="#8dd3c7" stroke="black" points="2192.85,-122 2189.85,-126 2168.85,-126 2165.85,-122 2047.15,-122 2047.15,-86 2192.85,-86 2192.85,-122"/>
<text text-anchor="middle" x="2120" y="-99.8" font-family="Times,serif" font-size="14.00">OrderTableComponent</text>
</g>
<!-- OrderTableComponent&#45;&gt;ManagerModule -->
<g id="edge14" class="edge">
<title>OrderTableComponent&#45;&gt;ManagerModule</title>
<path fill="none" stroke="black" d="M2120,-122.11C2120,-141.34 2120,-169 2120,-169 2120,-169 1495.93,-169 1495.93,-169"/>
<polygon fill="black" stroke="black" points="1495.93,-165.5 1485.93,-169 1495.93,-172.5 1495.93,-165.5"/>
</g>
<!-- PlaceholderPipe -->
<g id="node16" class="node">
<title>PlaceholderPipe</title>
<polygon fill="#8dd3c7" stroke="black" points="2029.47,-122 2026.47,-126 2005.47,-126 2002.47,-122 1922.53,-122 1922.53,-86 2029.47,-86 2029.47,-122"/>
<text text-anchor="middle" x="1976" y="-99.8" font-family="Times,serif" font-size="14.00">PlaceholderPipe</text>
</g>
<!-- PlaceholderPipe&#45;&gt;ManagerModule -->
<g id="edge15" class="edge">
<title>PlaceholderPipe&#45;&gt;ManagerModule</title>
<path fill="none" stroke="black" d="M1976,-122.3C1976,-140.27 1976,-165 1976,-165 1976,-165 1495.75,-165 1495.75,-165"/>
<polygon fill="black" stroke="black" points="1495.75,-161.5 1485.75,-165 1495.75,-168.5 1495.75,-161.5"/>
</g>
<!-- ShopModule -->
<g id="node17" class="node">
<title>ShopModule</title>
<polygon fill="#8dd3c7" stroke="black" points="1904.33,-122 1901.33,-126 1880.33,-126 1877.33,-122 1815.67,-122 1815.67,-86 1904.33,-86 1904.33,-122"/>
<text text-anchor="middle" x="1860" y="-99.8" font-family="Times,serif" font-size="14.00">ShopModule</text>
</g>
<!-- ShopModule&#45;&gt;ManagerModule -->
<g id="edge16" class="edge">
<title>ShopModule&#45;&gt;ManagerModule</title>
<path fill="none" stroke="black" d="M1860,-122.03C1860,-138.4 1860,-160 1860,-160 1860,-160 1495.77,-160 1495.77,-160"/>
<polygon fill="black" stroke="black" points="1495.77,-156.5 1485.77,-160 1495.77,-163.5 1495.77,-156.5"/>
</g>
</g>
</svg>
